<?xml version="1.0" encoding="UTF-8" standalone="no"?>
<!DOCTYPE svg PUBLIC "-//W3C//DTD SVG 1.1//EN" "http://www.w3.org/Graphics/SVG/1.1/DTD/svg11.dtd">
<svg width="100%" height="100%" viewBox="0 0 129 34" version="1.1" xmlns="http://www.w3.org/2000/svg" xmlns:xlink="http://www.w3.org/1999/xlink" xml:space="preserve" xmlns:serif="http://www.serif.com/" style="fill-rule:evenodd;clip-rule:evenodd;stroke-linejoin:round;stroke-miterlimit:1.41421;">
    <g id="Podfan">
        <path d="M100.996,30.836C100.736,31.312 99.18,32.998 96.154,32.998C92.435,32.998 89.192,30.187 89.192,25.128C89.192,21.28 91.916,17.518 96.932,17.518C98.272,17.518 99.526,17.778 100.218,18.124C100.218,15.875 99.483,15.183 96.154,15.183C93.819,15.183 92.738,15.486 91.354,15.702L92.262,10.384C94.294,10.254 96.37,10.081 98.402,10.081C104.326,10.081 107.569,11.162 107.569,17.129L107.569,32.479L101.083,32.479L101.083,30.836L100.996,30.836ZM20.659,21.28C20.659,27.766 25.891,32.998 32.377,32.998C38.862,32.998 44.094,27.766 44.094,21.28C44.094,14.794 38.862,9.562 32.377,9.562C25.891,9.562 20.659,14.794 20.659,21.28ZM68.049,32.479L60.525,32.479L60.525,30.144L60.439,30.144C59.66,31.355 57.844,32.998 54.601,32.998C49.11,32.998 44.397,28.371 44.397,22.015C44.397,14.275 48.851,9.562 55.38,9.562C58.19,9.562 59.92,10.773 60.525,11.378L60.525,1.347L68.049,1.347L68.049,32.479ZM116.649,32.479L109.126,32.479L109.126,10.081L116.649,10.081L116.649,12.157C118.119,10.557 119.892,9.562 122.141,9.562C125.254,9.562 128.626,11.249 128.626,16.005L128.626,32.479L121.103,32.479L121.103,20.199C121.103,18.772 120.843,17.086 118.811,17.086C116.952,17.086 116.649,18.772 116.649,20.199L116.649,32.479ZM77.301,32.479L69.778,32.479L69.778,24.609L77.301,24.609L77.301,32.479ZM86.598,32.479L79.074,32.479L79.074,16.567L77.215,16.567L77.215,10.081L79.074,10.081C79.118,6.276 79.204,1.001 87.636,1.001C88.371,1.001 89.062,1.044 89.841,1.131L89.841,8.179C87.203,8.179 86.901,8.179 86.598,10.081L89.754,10.081L89.754,16.567L86.598,16.567L86.598,32.479ZM8.249,32.479L0.12,32.479L0.12,1.347L10.843,1.347C18.021,1.347 21.653,5.714 21.653,12.892C21.653,21.323 16.075,24.393 8.249,24.264L8.249,32.479ZM98.662,22.361C99.915,22.361 100.953,23.399 100.953,24.653C100.953,25.907 99.915,26.944 98.662,26.944C97.408,26.944 96.37,25.907 96.37,24.653C96.37,23.399 97.408,22.361 98.662,22.361ZM28.182,21.28C28.182,18.945 30.042,17.086 32.377,17.086C34.711,17.086 36.571,18.945 36.571,21.28C36.571,23.615 34.711,25.474 32.377,25.474C30.042,25.474 28.182,23.615 28.182,21.28ZM51.921,21.28C51.921,18.945 53.78,17.086 56.158,17.086C58.493,17.086 60.352,18.945 60.352,21.28C60.352,23.615 58.493,25.474 56.158,25.474C53.78,25.474 51.921,23.615 51.921,21.28ZM9.806,8.698L8.249,8.698L8.249,16.394L9.806,16.394C12.573,16.394 13.524,14.535 13.524,12.546C13.524,10.557 12.573,8.698 9.806,8.698Z" style="fill:rgb(132,96,244);"/>
    </g>
</svg>
