<?xml version="1.0" encoding="UTF-8" standalone="no"?>
<!DOCTYPE svg PUBLIC "-//W3C//DTD SVG 1.1//EN" "http://www.w3.org/Graphics/SVG/1.1/DTD/svg11.dtd">
<svg width="100%" height="100%" viewBox="0 0 189 34" version="1.1" xmlns="http://www.w3.org/2000/svg" xmlns:xlink="http://www.w3.org/1999/xlink" xml:space="preserve" xmlns:serif="http://www.serif.com/" style="fill-rule:evenodd;clip-rule:evenodd;stroke-linejoin:round;stroke-miterlimit:1.41421;">
    <g id="Artboard1" transform="matrix(0.989598,0,0,0.915612,-163.952,-440.221)">
        <rect x="165.676" y="480.794" width="190.778" height="37.134" style="fill:none;"/>
        <g transform="matrix(0.413502,0,0,0.446915,33.6567,440.966)">
            <text x="458.336px" y="168.718px" style="font-family:'KabelLTPro-Black', 'Kabel LT Pro', sans-serif;font-weight:900;font-size:105.666px;fill:rgb(132,96,244);">P<tspan x="512.649px " y="168.718px ">o</tspan></text>
            <text x="570.132px" y="168.718px" style="font-family:'KabelLTPro-Black', 'Kabel LT Pro', sans-serif;font-weight:900;font-size:105.666px;fill:rgb(132,96,244);">d</text>
            <text x="629.41px" y="168.718px" style="font-family:'KabelLTPro-Black', 'Kabel LT Pro', sans-serif;font-weight:900;font-size:105.666px;fill:rgb(132,96,244);">.</text>
            <text x="650.332px" y="168.718px" style="font-family:'KabelLTPro-Black', 'Kabel LT Pro', sans-serif;font-weight:900;font-size:105.666px;fill:rgb(132,96,244);">f</text>
            <text x="680.447px" y="168.718px" style="font-family:'KabelLTPro-Black', 'Kabel LT Pro', sans-serif;font-weight:900;font-size:105.666px;fill:rgb(132,96,244);">a</text>
            <text x="725.99px" y="168.718px" style="font-family:'KabelLTPro-Black', 'Kabel LT Pro', sans-serif;font-weight:900;font-size:105.666px;fill:rgb(132,96,244);">n</text>
        </g>
        <g transform="matrix(0.698942,0,0,0.755419,429.026,337.817)">
            <path d="M-366.846,232.677C-367.194,232.677 -367.544,232.546 -367.815,232.284C-372.703,227.399 -375.4,220.902 -375.407,213.989C-375.411,207.066 -372.725,200.566 -367.845,195.673C-367.312,195.142 -366.444,195.142 -365.913,195.673C-365.38,196.21 -365.38,197.074 -365.913,197.611C-370.275,201.978 -372.679,207.793 -372.671,213.983C-372.664,220.163 -370.256,225.981 -365.883,230.343C-365.349,230.876 -365.345,231.746 -365.883,232.282C-366.149,232.546 -366.497,232.677 -366.846,232.677ZM-325.598,232.631C-325.945,232.631 -326.293,232.496 -326.557,232.236C-327.095,231.698 -327.095,230.833 -326.566,230.306C-322.197,225.92 -319.793,220.106 -319.797,213.924C-319.808,207.743 -322.221,201.925 -326.601,197.567C-327.132,197.034 -327.132,196.164 -326.601,195.633C-326.07,195.1 -325.202,195.098 -324.667,195.629C-319.769,200.511 -317.076,207.004 -317.065,213.924C-317.059,220.834 -319.743,227.34 -324.627,232.236C-324.894,232.496 -325.241,232.631 -325.598,232.631ZM-330.257,213.049C-330.261,208.64 -333.841,205.069 -338.266,205.074C-342.672,205.078 -346.239,208.656 -346.235,213.064C-346.239,208.656 -349.814,205.085 -354.234,205.089C-358.657,205.093 -362.226,208.671 -362.219,213.081C-362.219,215.518 -361.109,217.658 -359.411,219.118L-346.191,232.305L-332.774,218.866C-331.229,217.411 -330.257,215.35 -330.257,213.049ZM-362.71,228.537C-363.058,228.537 -363.407,228.403 -363.676,228.139C-367.468,224.36 -369.559,219.332 -369.562,213.979C-369.57,208.631 -367.488,203.596 -363.707,199.796C-363.178,199.258 -362.31,199.258 -361.775,199.789C-361.237,200.329 -361.235,201.194 -361.77,201.728C-365.038,205.008 -366.836,209.359 -366.83,213.979C-366.83,218.599 -365.018,222.942 -361.749,226.203C-361.211,226.74 -361.209,227.606 -361.744,228.137C-362.009,228.403 -362.356,228.537 -362.71,228.537ZM-329.734,228.504C-330.081,228.504 -330.433,228.372 -330.7,228.099C-331.235,227.573 -331.235,226.703 -330.704,226.174C-327.441,222.9 -325.647,218.551 -325.654,213.935C-325.656,209.315 -327.461,204.975 -330.735,201.703C-331.268,201.172 -331.268,200.307 -330.735,199.771C-330.202,199.24 -329.33,199.24 -328.801,199.771C-325.013,203.556 -322.928,208.587 -322.915,213.935C-322.915,219.281 -324.994,224.316 -328.766,228.104C-329.026,228.368 -329.384,228.504 -329.734,228.504Z" style="fill:rgb(132,96,244);fill-rule:nonzero;"/>
        </g>
    </g>
</svg>
