<?xml version="1.0" encoding="UTF-8" standalone="no"?>
<!DOCTYPE svg PUBLIC "-//W3C//DTD SVG 1.1//EN" "http://www.w3.org/Graphics/SVG/1.1/DTD/svg11.dtd">
<svg width="100%" height="100%" viewBox="0 0 32 25" version="1.1" xmlns="http://www.w3.org/2000/svg" xmlns:xlink="http://www.w3.org/1999/xlink" xml:space="preserve" xmlns:serif="http://www.serif.com/" style="fill-rule:evenodd;clip-rule:evenodd;stroke-linejoin:round;stroke-miterlimit:1.41421;">
    <g id="Artboard2" transform="matrix(0.910844,0,0,0.905206,0,0)">
        <rect x="0" y="0" width="34.105" height="26.549" style="fill:none;"/>
        <g transform="matrix(1.00129,0,0,1.00129,0.205194,0.295087)">
            <g>
                <g>
                    <g transform="matrix(0.0558778,0,0,0.0562259,-2.47313,-0.331882)">
                        <path d="M345.833,48.291C391.563,48.508 436.743,69.608 466.163,104.815C496.397,140.996 510.649,191.016 498.621,237.46C492.213,262.204 478.856,284.688 465.344,306.406C460.562,313.961 455.332,321.245 450.272,328.646C420.359,372.399 390.366,415.936 360.392,459.519L358.599,461.549L357.976,461.98C357.095,462.829 356.827,463.026 356.216,463.487C349.466,468.587 339.209,468.129 332.8,462.06L332.088,461.567L330.296,459.55C295.124,408.768 259.551,357.902 225.249,307.043C202.207,272.878 184.946,234.351 188.567,192.051C193.497,134.462 232.524,80.932 287.627,59.206C305.64,52.105 324.976,48.447 344.309,48.294C344.817,48.291 345.325,48.291 345.833,48.291ZM140.498,6.325C153.96,6.564 166.054,19.328 164.896,33.202C164.357,39.648 160.938,45.413 156.283,50.144C116.738,90.584 93.774,146.726 93.843,203.466C93.913,259.669 115.998,314.972 155.614,355.717C156.704,356.838 158.25,358.387 158.25,358.387C167.308,367.795 167.314,384.541 157.54,393.757C148.605,402.182 133.247,402.576 123.787,394.077C120.005,390.678 116.615,386.814 113.182,383.009C80.566,346.86 58.051,301.86 48.954,253.884C38.443,198.454 45.675,139.7 69.726,88.727C82.873,60.864 101.04,35.315 122.686,13.544C122.686,13.544 124.897,11.42 127.087,10.059C130.919,7.676 135.419,6.405 139.906,6.325C140.203,6.323 140.202,6.323 140.498,6.325ZM550.393,5.903C560.933,6.066 569.069,14.175 576.914,22.799C618.225,68.212 643.283,128.327 646.205,190.322C649.615,262.665 622.554,335.614 572.757,388.016C570.877,389.994 568.646,392.257 568.008,392.891C558.43,402.407 540.538,402.219 531.338,390.955C523.955,381.916 524.033,367.583 532.087,358.693C535.091,355.377 538.368,352.222 541.379,348.85C567.994,319.038 586.249,281.932 593.385,242.663C605.503,175.977 584.701,104.141 538.788,54.663C536.758,52.476 534.681,50.334 532.569,48.226C532.569,48.226 529.049,44.422 527.39,40.576C522.274,28.716 528.168,13.222 540.225,7.968C543.24,6.654 546.508,5.971 549.8,5.905C550.096,5.902 550.096,5.902 550.393,5.903ZM181.573,47.245C192.766,47.419 203.315,55.895 205.636,67.012C207.512,75.998 203.276,85.027 196.798,91.751C157.445,132.852 141.274,195.121 159.403,252.122C167.151,276.483 181.002,298.888 199.143,317.035C199.143,317.035 203.248,321.539 204.905,326.058C209.567,338.778 201.903,354.784 188.119,358.493C179.311,360.864 169.536,357.579 163.187,351.194C115.731,303.176 93.212,231.868 105.939,164.036C113.658,122.895 134.16,84.426 163.773,54.568C163.773,54.568 165.96,52.432 168.128,51.06C171.959,48.636 176.478,47.338 180.979,47.247C181.276,47.244 181.275,47.244 181.573,47.245ZM509.362,47.06C516.216,47.182 522.681,50.356 527.515,55.231C568.916,97.243 591.784,156.568 587.933,216.732C584.711,267.076 562.645,315.798 526.958,351.738C526.958,351.738 523.54,354.959 520.122,356.589C509.519,361.645 495.581,358.194 488.713,347.902C482.41,338.458 483.636,324.978 492.156,316.378C492.392,316.14 492.627,315.9 492.863,315.66C528.536,279.094 545.345,226.157 536.257,174.788C530.695,143.346 515.363,113.764 492.931,90.797C492.149,89.996 491.082,88.922 491.082,88.922C482.008,79.294 482.433,62.415 492.448,53.412C496.884,49.423 502.788,47.166 508.77,47.06C509.067,47.058 509.066,47.058 509.362,47.06ZM343.464,169.115C325.208,169.288 308.054,183.121 304.269,201.061C301.475,214.305 305.868,228.829 315.549,238.276C326.669,249.127 344.301,252.746 358.961,246.761C371.774,241.531 381.493,229.287 383.588,215.592C386.202,198.507 376.462,180.218 360.744,172.876C355.348,170.355 349.377,169.096 343.464,169.115Z" style="fill:white;"/>
                    </g>
                    <g transform="matrix(1.02091,0,0,1.02726,-0.753864,-0.593916)">
                        <path d="M16.899,25.058C15.659,23.269 11.137,16.734 10.868,16.285C10.027,14.89 9.219,13.304 9.219,11.511C9.219,7.092 12.799,3.512 17.217,3.512C21.636,3.512 25.217,7.092 25.219,11.512C25.219,13.457 24.297,15.044 23.266,16.7C23.063,17.025 18.74,23.308 17.536,25.058L17.52,25.058C17.447,25.149 17.343,25.211 17.218,25.211C17.093,25.211 16.988,25.149 16.916,25.058L16.899,25.058ZM6.007,21.562C5.818,21.562 5.628,21.491 5.48,21.348C2.821,18.691 1.354,15.156 1.35,11.396C1.348,7.629 2.809,4.094 5.464,1.432C5.754,1.143 6.226,1.143 6.515,1.432C6.805,1.724 6.805,2.194 6.515,2.486C4.142,4.862 2.834,8.025 2.839,11.392C2.842,14.755 4.152,17.919 6.531,20.292C6.821,20.583 6.824,21.056 6.531,21.347C6.386,21.491 6.197,21.562 6.007,21.562ZM28.447,21.537C28.258,21.537 28.069,21.464 27.925,21.322C27.632,21.03 27.632,20.559 27.92,20.272C30.297,17.886 31.604,14.724 31.602,11.36C31.596,7.998 30.284,4.833 27.901,2.462C27.612,2.172 27.612,1.699 27.901,1.41C28.19,1.12 28.662,1.119 28.953,1.408C31.617,4.064 33.082,7.596 33.088,11.36C33.092,15.12 31.632,18.659 28.975,21.322C28.829,21.464 28.64,21.537 28.447,21.537ZM8.257,19.31C8.068,19.31 7.878,19.237 7.732,19.093C5.669,17.038 4.531,14.302 4.53,11.39C4.525,8.481 5.658,5.742 7.715,3.674C8.003,3.382 8.475,3.382 8.766,3.671C9.059,3.965 9.06,4.435 8.768,4.725C6.991,6.51 6.013,8.877 6.016,11.39C6.016,13.904 7.002,16.266 8.78,18.04C9.073,18.333 9.074,18.803 8.783,19.092C8.639,19.237 8.45,19.31 8.257,19.31ZM26.197,19.292C26.007,19.292 25.816,19.22 25.671,19.072C25.38,18.785 25.38,18.312 25.669,18.024C27.444,16.243 28.42,13.877 28.416,11.366C28.415,8.853 27.433,6.492 25.652,4.712C25.362,4.423 25.362,3.952 25.652,3.661C25.942,3.372 26.416,3.372 26.704,3.661C28.765,5.72 29.899,8.457 29.906,11.366C29.906,14.275 28.775,17.014 26.723,19.074C26.582,19.218 26.387,19.292 26.197,19.292ZM17.129,14.538C15.571,14.538 14.308,13.276 14.308,11.719C14.308,10.162 15.57,8.898 17.129,8.898C18.685,8.898 19.95,10.161 19.95,11.719C19.95,13.276 18.686,14.538 17.129,14.538Z" style="fill:rgb(132,96,244);"/>
                    </g>
                </g>
            </g>
        </g>
    </g>
</svg>
