<?xml version="1.0" encoding="UTF-8" standalone="no"?>
<!DOCTYPE svg PUBLIC "-//W3C//DTD SVG 1.1//EN" "http://www.w3.org/Graphics/SVG/1.1/DTD/svg11.dtd">
<svg width="100%" height="100%" viewBox="0 0 1250 1250" version="1.1" xmlns="http://www.w3.org/2000/svg" xmlns:xlink="http://www.w3.org/1999/xlink" xml:space="preserve" xmlns:serif="http://www.serif.com/" style="fill-rule:evenodd;clip-rule:evenodd;stroke-linecap:round;stroke-linejoin:round;stroke-miterlimit:1.5;">
    <g id="Artboard1" transform="matrix(1.16749,0,0,1.50845,0,3.42981e-13)">
        <g transform="matrix(0.817935,0.381072,-0.492362,0.633054,193.539,-140.867)">
            <circle cx="181.932" cy="406.425" r="7.858" style="fill:none;stroke:white;stroke-opacity:0.2;stroke-width:3.74px;"/>
        </g>
        <g transform="matrix(0.817935,0.381072,-0.492362,0.633054,510.365,-57.306)">
            <circle cx="181.932" cy="406.425" r="7.858" style="fill:none;stroke:white;stroke-opacity:0.2;stroke-width:3.74px;"/>
        </g>
        <g transform="matrix(0.817935,0.381072,-0.492362,0.633054,833.095,24.1591)">
            <circle cx="181.932" cy="406.425" r="7.858" style="fill:none;stroke:white;stroke-opacity:0.2;stroke-width:3.74px;"/>
        </g>
        <g transform="matrix(0.817935,0.381072,-0.492362,0.633054,939.637,-223.752)">
            <circle cx="181.932" cy="406.425" r="7.858" style="fill:none;stroke:white;stroke-opacity:0.2;stroke-width:3.74px;"/>
        </g>
        <g transform="matrix(0.817935,0.381072,-0.492362,0.633054,619.702,-305.476)">
            <circle cx="181.932" cy="406.425" r="7.858" style="fill:none;stroke:white;stroke-opacity:0.2;stroke-width:3.74px;"/>
        </g>
        <g transform="matrix(0.817935,0.381072,-0.492362,0.633054,405.003,190.715)">
            <circle cx="181.932" cy="406.425" r="7.858" style="fill:none;stroke:white;stroke-opacity:0.2;stroke-width:3.74px;"/>
        </g>
        <g transform="matrix(0.817935,0.381072,-0.492362,0.633054,84.9386,108.413)">
            <circle cx="181.932" cy="406.425" r="7.858" style="fill:none;stroke:white;stroke-opacity:0.2;stroke-width:3.74px;"/>
        </g>
        <g transform="matrix(4.70807,0,0,3.18565,-143.553,-110.819)">
            <g transform="matrix(0.248565,0,0,0.284319,-78.4929,-39.387)">
                <circle cx="472.708" cy="538.29" r="3.523" style="fill:white;fill-opacity:0.2;"/>
            </g>
            <g transform="matrix(0.248565,0,0,0.284319,-41.9894,-37.8131)">
                <circle cx="472.708" cy="538.29" r="3.523" style="fill:white;fill-opacity:0.2;"/>
            </g>
            <g transform="matrix(0.248565,0,0,0.284319,-73.5949,-83.2806)">
                <circle cx="472.708" cy="538.29" r="3.523" style="fill:white;fill-opacity:0.2;"/>
            </g>
            <g transform="matrix(0.248565,0,0,0.284319,-38.0372,-79.4903)">
                <circle cx="472.708" cy="538.29" r="3.523" style="fill:white;fill-opacity:0.2;"/>
            </g>
        </g>
        <g transform="matrix(4.53522,0.978305,-1.10506,3.0687,296.125,-75.1683)">
            <g transform="matrix(0.248565,0,0,0.284319,-78.4929,-39.387)">
                <circle cx="472.708" cy="538.29" r="3.523" style="fill:white;fill-opacity:0.2;"/>
            </g>
            <g transform="matrix(0.248565,0,0,0.284319,-41.9894,-37.8131)">
                <circle cx="472.708" cy="538.29" r="3.523" style="fill:white;fill-opacity:0.2;"/>
            </g>
            <g transform="matrix(0.248565,0,0,0.284319,-73.5949,-83.2806)">
                <circle cx="472.708" cy="538.29" r="3.523" style="fill:white;fill-opacity:0.2;"/>
            </g>
            <g transform="matrix(0.248565,0,0,0.284319,-38.0372,-79.4903)">
                <circle cx="472.708" cy="538.29" r="3.523" style="fill:white;fill-opacity:0.2;"/>
            </g>
        </g>
        <g transform="matrix(1.12729,0.243172,-0.314189,0.872488,-83.8198,-556.994)">
            <g>
                <circle cx="472.708" cy="538.29" r="3.523" style="fill:white;fill-opacity:0.2;"/>
            </g>
        </g>
        <g transform="matrix(4.53522,0.978305,-1.10506,3.0687,-126.36,102.486)">
            <g transform="matrix(0.248565,0,0,0.284319,-41.9894,-37.8131)">
                <circle cx="472.708" cy="538.29" r="3.523" style="fill:white;fill-opacity:0.2;"/>
            </g>
            <g transform="matrix(0.248565,0,0,0.284319,-73.5949,-83.2806)">
                <circle cx="472.708" cy="538.29" r="3.523" style="fill:white;fill-opacity:0.2;"/>
            </g>
            <g transform="matrix(0.248565,0,0,0.284319,-38.0372,-79.4903)">
                <circle cx="472.708" cy="538.29" r="3.523" style="fill:white;fill-opacity:0.2;"/>
            </g>
        </g>
        <g transform="matrix(4.53522,0.978305,-1.10506,3.0687,532.163,258.503)">
            <g transform="matrix(0.248565,0,0,0.284319,-78.4929,-39.387)">
                <circle cx="472.708" cy="538.29" r="3.523" style="fill:white;fill-opacity:0.2;"/>
            </g>
            <g transform="matrix(0.248565,0,0,0.284319,-41.9894,-37.8131)">
                <circle cx="472.708" cy="538.29" r="3.523" style="fill:white;fill-opacity:0.2;"/>
            </g>
            <g transform="matrix(0.248565,0,0,0.284319,-73.5949,-83.2806)">
                <circle cx="472.708" cy="538.29" r="3.523" style="fill:white;fill-opacity:0.2;"/>
            </g>
            <g transform="matrix(0.248565,0,0,0.284319,-38.0372,-79.4903)">
                <circle cx="472.708" cy="538.29" r="3.523" style="fill:white;fill-opacity:0.2;"/>
            </g>
        </g>
        <g transform="matrix(4.53522,0.978305,-1.10506,3.0687,946.593,100.569)">
            <g transform="matrix(0.248565,0,0,0.284319,-78.4929,-39.387)">
                <circle cx="472.708" cy="538.29" r="3.523" style="fill:white;fill-opacity:0.2;"/>
            </g>
            <g transform="matrix(0.248565,0,0,0.284319,-74.4164,-83.1946)">
                <circle cx="472.708" cy="538.29" r="3.523" style="fill:white;fill-opacity:0.2;"/>
            </g>
        </g>
        <g transform="matrix(4.53522,0.978305,-1.10506,3.0687,719.226,-230.564)">
            <g transform="matrix(0.248565,0,0,0.284319,-78.4929,-39.387)">
                <circle cx="472.708" cy="538.29" r="3.523" style="fill:white;fill-opacity:0.2;"/>
            </g>
            <g transform="matrix(0.248565,0,0,0.284319,-41.9894,-37.8131)">
                <circle cx="472.708" cy="538.29" r="3.523" style="fill:white;fill-opacity:0.2;"/>
            </g>
            <g transform="matrix(0.248565,0,0,0.284319,-73.5949,-83.2806)">
                <circle cx="472.708" cy="538.29" r="3.523" style="fill:white;fill-opacity:0.2;"/>
            </g>
            <g transform="matrix(0.248565,0,0,0.284319,-38.0372,-79.4903)">
                <circle cx="472.708" cy="538.29" r="3.523" style="fill:white;fill-opacity:0.2;"/>
            </g>
        </g>
        <g transform="matrix(4.70807,0,0,3.18565,505.364,52.9462)">
            <g transform="matrix(0.248565,0,0,0.284319,-78.4929,-39.387)">
                <circle cx="472.708" cy="538.29" r="3.523" style="fill:white;fill-opacity:0.2;"/>
            </g>
            <g transform="matrix(0.248565,0,0,0.284319,-41.9894,-37.8131)">
                <circle cx="472.708" cy="538.29" r="3.523" style="fill:white;fill-opacity:0.2;"/>
            </g>
            <g transform="matrix(0.248565,0,0,0.284319,-73.5949,-83.2806)">
                <circle cx="472.708" cy="538.29" r="3.523" style="fill:white;fill-opacity:0.2;"/>
            </g>
            <g transform="matrix(0.248565,0,0,0.284319,-38.0372,-79.4903)">
                <circle cx="472.708" cy="538.29" r="3.523" style="fill:white;fill-opacity:0.2;"/>
            </g>
        </g>
        <g transform="matrix(4.70807,0,0,3.18565,271.522,-280.787)">
            <g transform="matrix(0.248565,0,0,0.284319,-78.4929,-39.387)">
                <circle cx="472.708" cy="538.29" r="3.523" style="fill:white;fill-opacity:0.2;"/>
            </g>
            <g transform="matrix(0.248565,0,0,0.284319,-41.9894,-37.8131)">
                <circle cx="472.708" cy="538.29" r="3.523" style="fill:white;fill-opacity:0.2;"/>
            </g>
        </g>
        <g transform="matrix(4.70807,0,0,3.18565,75.8208,230.863)">
            <g transform="matrix(0.248565,0,0,0.284319,-78.4929,-39.387)">
                <circle cx="472.708" cy="538.29" r="3.523" style="fill:white;fill-opacity:0.2;"/>
            </g>
            <g transform="matrix(0.248565,0,0,0.284319,-41.9894,-37.8131)">
                <circle cx="472.708" cy="538.29" r="3.523" style="fill:white;fill-opacity:0.2;"/>
            </g>
            <g transform="matrix(0.248565,0,0,0.284319,-73.5949,-83.2806)">
                <circle cx="472.708" cy="538.29" r="3.523" style="fill:white;fill-opacity:0.2;"/>
            </g>
            <g transform="matrix(0.248565,0,0,0.284319,-38.0372,-79.4903)">
                <circle cx="472.708" cy="538.29" r="3.523" style="fill:white;fill-opacity:0.2;"/>
            </g>
        </g>
        <g transform="matrix(4.70807,0,0,3.18565,716.745,382.7)">
            <g transform="matrix(0.248565,0,0,0.284319,-78.4929,-39.387)">
                <circle cx="472.708" cy="538.29" r="3.523" style="fill:white;fill-opacity:0.2;"/>
            </g>
            <g transform="matrix(0.248565,0,0,0.284319,-41.9894,-37.8131)">
                <circle cx="472.708" cy="538.29" r="3.523" style="fill:white;fill-opacity:0.2;"/>
            </g>
            <g transform="matrix(0.248565,0,0,0.284319,-73.5949,-83.2806)">
                <circle cx="472.708" cy="538.29" r="3.523" style="fill:white;fill-opacity:0.2;"/>
            </g>
        </g>
        <g transform="matrix(4.70807,0,0,3.18565,296.923,550.208)">
            <g transform="matrix(0.248565,0,0,0.284319,-73.5949,-83.2806)">
                <circle cx="472.708" cy="538.29" r="3.523" style="fill:white;fill-opacity:0.2;"/>
            </g>
            <g transform="matrix(0.248565,0,0,0.284319,-38.0372,-79.4903)">
                <circle cx="472.708" cy="538.29" r="3.523" style="fill:white;fill-opacity:0.2;"/>
            </g>
        </g>
        <g transform="matrix(4.70807,0,0,3.18565,-192.788,437.942)">
            <g transform="matrix(0.248565,0,0,0.284319,-41.9894,-37.8131)">
                <circle cx="472.708" cy="538.29" r="3.523" style="fill:white;fill-opacity:0.2;"/>
            </g>
            <g transform="matrix(0.248565,0,0,0.284319,-73.5949,-83.2806)">
                <circle cx="472.708" cy="538.29" r="3.523" style="fill:white;fill-opacity:0.2;"/>
            </g>
            <g transform="matrix(0.248565,0,0,0.284319,-38.0372,-79.4903)">
                <circle cx="472.708" cy="538.29" r="3.523" style="fill:white;fill-opacity:0.2;"/>
            </g>
        </g>
        <g transform="matrix(0.817935,0.381072,-0.492362,0.633054,298.643,438.795)">
            <circle cx="181.932" cy="406.425" r="7.858" style="fill:none;stroke:white;stroke-opacity:0.2;stroke-width:3.74px;"/>
        </g>
        <g transform="matrix(0.817935,0.381072,-0.492362,0.633054,725.714,274.684)">
            <circle cx="181.932" cy="406.425" r="7.858" style="fill:none;stroke:white;stroke-opacity:0.2;stroke-width:3.74px;"/>
        </g>
        <g transform="matrix(0.817935,0.381072,-0.492362,0.633054,1046.53,356.854)">
            <circle cx="181.932" cy="406.425" r="7.858" style="fill:none;stroke:white;stroke-opacity:0.2;stroke-width:3.74px;"/>
        </g>
        <g transform="matrix(0.221395,-0.109444,0.141407,0.171352,312.446,96.2614)">
            <path d="M125.524,219.138C115.677,204.924 79.761,153.017 77.618,149.447C70.943,138.37 64.521,125.766 64.521,111.525C64.521,76.426 92.959,47.988 128.051,47.988C163.15,47.988 191.595,76.426 191.617,111.532C191.617,126.982 184.29,139.594 176.102,152.741C174.487,155.326 140.149,205.23 130.585,219.138L130.462,219.138C129.883,219.855 129.05,220.347 128.058,220.347C127.067,220.347 126.234,219.855 125.662,219.138L125.524,219.138ZM39.009,191.367C37.507,191.367 35.996,190.8 34.825,189.667C13.699,168.56 2.046,140.483 2.017,110.612C1.998,80.694 13.605,52.608 34.693,31.464C36.997,29.169 40.746,29.169 43.041,31.464C45.346,33.787 45.346,37.517 43.041,39.84C24.191,58.709 13.803,83.839 13.841,110.584C13.869,137.291 24.276,162.431 43.173,181.281C45.478,183.585 45.497,187.344 43.173,189.658C42.021,190.8 40.52,191.367 39.009,191.367ZM217.252,191.169C215.75,191.169 214.249,190.583 213.106,189.459C210.783,187.136 210.783,183.396 213.068,181.12C231.947,162.166 242.335,137.046 242.316,110.329C242.269,83.622 231.843,58.482 212.917,39.651C210.622,37.347 210.622,33.588 212.917,31.294C215.212,28.989 218.961,28.98 221.275,31.275C242.439,52.372 254.074,80.43 254.121,110.329C254.149,140.191 242.552,168.305 221.445,189.459C220.293,190.583 218.791,191.169 217.252,191.169ZM56.882,173.475C55.381,173.475 53.87,172.899 52.708,171.757C36.323,155.428 27.285,133.698 27.276,110.57C27.238,87.461 36.238,65.702 52.576,49.279C54.861,46.956 58.61,46.956 60.924,49.251C63.247,51.584 63.257,55.323 60.943,57.628C46.824,71.803 39.052,90.606 39.081,110.57C39.081,130.534 46.909,149.299 61.037,163.389C63.361,165.713 63.37,169.452 61.056,171.747C59.914,172.899 58.412,173.475 56.882,173.475ZM199.379,173.332C197.877,173.332 196.357,172.765 195.204,171.585C192.891,169.309 192.891,165.55 195.185,163.265C209.285,149.118 217.039,130.325 217.01,110.379C217.001,90.415 209.2,71.659 195.053,57.522C192.749,55.227 192.749,51.487 195.053,49.174C197.358,46.879 201.126,46.879 203.411,49.174C219.777,65.53 228.787,87.27 228.843,110.379C228.843,133.479 219.862,155.238 203.562,171.604C202.438,172.746 200.89,173.332 199.379,173.332ZM127.356,135.569C114.976,135.569 104.948,125.549 104.948,113.176C104.948,100.81 114.968,90.768 127.356,90.768C139.714,90.768 149.763,100.803 149.763,113.176C149.763,125.549 139.722,135.569 127.356,135.569Z" style="fill:white;fill-opacity:0.2;"/>
        </g>
        <g transform="matrix(0.221395,-0.109444,0.141407,0.171352,949.475,266.724)">
            <path d="M125.524,219.138C115.677,204.924 79.761,153.017 77.618,149.447C70.943,138.37 64.521,125.766 64.521,111.525C64.521,76.426 92.959,47.988 128.051,47.988C163.15,47.988 191.595,76.426 191.617,111.532C191.617,126.982 184.29,139.594 176.102,152.741C174.487,155.326 140.149,205.23 130.585,219.138L130.462,219.138C129.883,219.855 129.05,220.347 128.058,220.347C127.067,220.347 126.234,219.855 125.662,219.138L125.524,219.138ZM39.009,191.367C37.507,191.367 35.996,190.8 34.825,189.667C13.699,168.56 2.046,140.483 2.017,110.612C1.998,80.694 13.605,52.608 34.693,31.464C36.997,29.169 40.746,29.169 43.041,31.464C45.346,33.787 45.346,37.517 43.041,39.84C24.191,58.709 13.803,83.839 13.841,110.584C13.869,137.291 24.276,162.431 43.173,181.281C45.478,183.585 45.497,187.344 43.173,189.658C42.021,190.8 40.52,191.367 39.009,191.367ZM217.252,191.169C215.75,191.169 214.249,190.583 213.106,189.459C210.783,187.136 210.783,183.396 213.068,181.12C231.947,162.166 242.335,137.046 242.316,110.329C242.269,83.622 231.843,58.482 212.917,39.651C210.622,37.347 210.622,33.588 212.917,31.294C215.212,28.989 218.961,28.98 221.275,31.275C242.439,52.372 254.074,80.43 254.121,110.329C254.149,140.191 242.552,168.305 221.445,189.459C220.293,190.583 218.791,191.169 217.252,191.169ZM56.882,173.475C55.381,173.475 53.87,172.899 52.708,171.757C36.323,155.428 27.285,133.698 27.276,110.57C27.238,87.461 36.238,65.702 52.576,49.279C54.861,46.956 58.61,46.956 60.924,49.251C63.247,51.584 63.257,55.323 60.943,57.628C46.824,71.803 39.052,90.606 39.081,110.57C39.081,130.534 46.909,149.299 61.037,163.389C63.361,165.713 63.37,169.452 61.056,171.747C59.914,172.899 58.412,173.475 56.882,173.475ZM199.379,173.332C197.877,173.332 196.357,172.765 195.204,171.585C192.891,169.309 192.891,165.55 195.185,163.265C209.285,149.118 217.039,130.325 217.01,110.379C217.001,90.415 209.2,71.659 195.053,57.522C192.749,55.227 192.749,51.487 195.053,49.174C197.358,46.879 201.126,46.879 203.411,49.174C219.777,65.53 228.787,87.27 228.843,110.379C228.843,133.479 219.862,155.238 203.562,171.604C202.438,172.746 200.89,173.332 199.379,173.332ZM127.356,135.569C114.976,135.569 104.948,125.549 104.948,113.176C104.948,100.81 114.968,90.768 127.356,90.768C139.714,90.768 149.763,100.803 149.763,113.176C149.763,125.549 139.722,135.569 127.356,135.569Z" style="fill:white;fill-opacity:0.2;"/>
        </g>
        <g transform="matrix(0.221395,-0.109444,0.141407,0.171352,523.043,424.093)">
            <path d="M125.524,219.138C115.677,204.924 79.761,153.017 77.618,149.447C70.943,138.37 64.521,125.766 64.521,111.525C64.521,76.426 92.959,47.988 128.051,47.988C163.15,47.988 191.595,76.426 191.617,111.532C191.617,126.982 184.29,139.594 176.102,152.741C174.487,155.326 140.149,205.23 130.585,219.138L130.462,219.138C129.883,219.855 129.05,220.347 128.058,220.347C127.067,220.347 126.234,219.855 125.662,219.138L125.524,219.138ZM39.009,191.367C37.507,191.367 35.996,190.8 34.825,189.667C13.699,168.56 2.046,140.483 2.017,110.612C1.998,80.694 13.605,52.608 34.693,31.464C36.997,29.169 40.746,29.169 43.041,31.464C45.346,33.787 45.346,37.517 43.041,39.84C24.191,58.709 13.803,83.839 13.841,110.584C13.869,137.291 24.276,162.431 43.173,181.281C45.478,183.585 45.497,187.344 43.173,189.658C42.021,190.8 40.52,191.367 39.009,191.367ZM217.252,191.169C215.75,191.169 214.249,190.583 213.106,189.459C210.783,187.136 210.783,183.396 213.068,181.12C231.947,162.166 242.335,137.046 242.316,110.329C242.269,83.622 231.843,58.482 212.917,39.651C210.622,37.347 210.622,33.588 212.917,31.294C215.212,28.989 218.961,28.98 221.275,31.275C242.439,52.372 254.074,80.43 254.121,110.329C254.149,140.191 242.552,168.305 221.445,189.459C220.293,190.583 218.791,191.169 217.252,191.169ZM56.882,173.475C55.381,173.475 53.87,172.899 52.708,171.757C36.323,155.428 27.285,133.698 27.276,110.57C27.238,87.461 36.238,65.702 52.576,49.279C54.861,46.956 58.61,46.956 60.924,49.251C63.247,51.584 63.257,55.323 60.943,57.628C46.824,71.803 39.052,90.606 39.081,110.57C39.081,130.534 46.909,149.299 61.037,163.389C63.361,165.713 63.37,169.452 61.056,171.747C59.914,172.899 58.412,173.475 56.882,173.475ZM199.379,173.332C197.877,173.332 196.357,172.765 195.204,171.585C192.891,169.309 192.891,165.55 195.185,163.265C209.285,149.118 217.039,130.325 217.01,110.379C217.001,90.415 209.2,71.659 195.053,57.522C192.749,55.227 192.749,51.487 195.053,49.174C197.358,46.879 201.126,46.879 203.411,49.174C219.777,65.53 228.787,87.27 228.843,110.379C228.843,133.479 219.862,155.238 203.562,171.604C202.438,172.746 200.89,173.332 199.379,173.332ZM127.356,135.569C114.976,135.569 104.948,125.549 104.948,113.176C104.948,100.81 114.968,90.768 127.356,90.768C139.714,90.768 149.763,100.803 149.763,113.176C149.763,125.549 139.722,135.569 127.356,135.569Z" style="fill:white;fill-opacity:0.2;"/>
        </g>
        <g transform="matrix(0.221395,-0.109444,0.141407,0.171352,97.8533,593.633)">
            <path d="M125.524,219.138C115.677,204.924 79.761,153.017 77.618,149.447C70.943,138.37 64.521,125.766 64.521,111.525C64.521,76.426 92.959,47.988 128.051,47.988C163.15,47.988 191.595,76.426 191.617,111.532C191.617,126.982 184.29,139.594 176.102,152.741C174.487,155.326 140.149,205.23 130.585,219.138L130.462,219.138C129.883,219.855 129.05,220.347 128.058,220.347C127.067,220.347 126.234,219.855 125.662,219.138L125.524,219.138ZM39.009,191.367C37.507,191.367 35.996,190.8 34.825,189.667C13.699,168.56 2.046,140.483 2.017,110.612C1.998,80.694 13.605,52.608 34.693,31.464C36.997,29.169 40.746,29.169 43.041,31.464C45.346,33.787 45.346,37.517 43.041,39.84C24.191,58.709 13.803,83.839 13.841,110.584C13.869,137.291 24.276,162.431 43.173,181.281C45.478,183.585 45.497,187.344 43.173,189.658C42.021,190.8 40.52,191.367 39.009,191.367ZM217.252,191.169C215.75,191.169 214.249,190.583 213.106,189.459C210.783,187.136 210.783,183.396 213.068,181.12C231.947,162.166 242.335,137.046 242.316,110.329C242.269,83.622 231.843,58.482 212.917,39.651C210.622,37.347 210.622,33.588 212.917,31.294C215.212,28.989 218.961,28.98 221.275,31.275C242.439,52.372 254.074,80.43 254.121,110.329C254.149,140.191 242.552,168.305 221.445,189.459C220.293,190.583 218.791,191.169 217.252,191.169ZM56.882,173.475C55.381,173.475 53.87,172.899 52.708,171.757C36.323,155.428 27.285,133.698 27.276,110.57C27.238,87.461 36.238,65.702 52.576,49.279C54.861,46.956 58.61,46.956 60.924,49.251C63.247,51.584 63.257,55.323 60.943,57.628C46.824,71.803 39.052,90.606 39.081,110.57C39.081,130.534 46.909,149.299 61.037,163.389C63.361,165.713 63.37,169.452 61.056,171.747C59.914,172.899 58.412,173.475 56.882,173.475ZM199.379,173.332C197.877,173.332 196.357,172.765 195.204,171.585C192.891,169.309 192.891,165.55 195.185,163.265C209.285,149.118 217.039,130.325 217.01,110.379C217.001,90.415 209.2,71.659 195.053,57.522C192.749,55.227 192.749,51.487 195.053,49.174C197.358,46.879 201.126,46.879 203.411,49.174C219.777,65.53 228.787,87.27 228.843,110.379C228.843,133.479 219.862,155.238 203.562,171.604C202.438,172.746 200.89,173.332 199.379,173.332ZM127.356,135.569C114.976,135.569 104.948,125.549 104.948,113.176C104.948,100.81 114.968,90.768 127.356,90.768C139.714,90.768 149.763,100.803 149.763,113.176C149.763,125.549 139.722,135.569 127.356,135.569Z" style="fill:white;fill-opacity:0.2;"/>
        </g>
        <g transform="matrix(0.221395,-0.109444,0.141407,0.171352,735.432,759.14)">
            <path d="M125.524,219.138C115.677,204.924 79.761,153.017 77.618,149.447C70.943,138.37 64.521,125.766 64.521,111.525C64.521,76.426 92.959,47.988 128.051,47.988C163.15,47.988 191.595,76.426 191.617,111.532C191.617,126.982 184.29,139.594 176.102,152.741C174.487,155.326 140.149,205.23 130.585,219.138L130.462,219.138C129.883,219.855 129.05,220.347 128.058,220.347C127.067,220.347 126.234,219.855 125.662,219.138L125.524,219.138ZM39.009,191.367C37.507,191.367 35.996,190.8 34.825,189.667C13.699,168.56 2.046,140.483 2.017,110.612C1.998,80.694 13.605,52.608 34.693,31.464C36.997,29.169 40.746,29.169 43.041,31.464C45.346,33.787 45.346,37.517 43.041,39.84C24.191,58.709 13.803,83.839 13.841,110.584C13.869,137.291 24.276,162.431 43.173,181.281C45.478,183.585 45.497,187.344 43.173,189.658C42.021,190.8 40.52,191.367 39.009,191.367ZM217.252,191.169C215.75,191.169 214.249,190.583 213.106,189.459C210.783,187.136 210.783,183.396 213.068,181.12C231.947,162.166 242.335,137.046 242.316,110.329C242.269,83.622 231.843,58.482 212.917,39.651C210.622,37.347 210.622,33.588 212.917,31.294C215.212,28.989 218.961,28.98 221.275,31.275C242.439,52.372 254.074,80.43 254.121,110.329C254.149,140.191 242.552,168.305 221.445,189.459C220.293,190.583 218.791,191.169 217.252,191.169ZM56.882,173.475C55.381,173.475 53.87,172.899 52.708,171.757C36.323,155.428 27.285,133.698 27.276,110.57C27.238,87.461 36.238,65.702 52.576,49.279C54.861,46.956 58.61,46.956 60.924,49.251C63.247,51.584 63.257,55.323 60.943,57.628C46.824,71.803 39.052,90.606 39.081,110.57C39.081,130.534 46.909,149.299 61.037,163.389C63.361,165.713 63.37,169.452 61.056,171.747C59.914,172.899 58.412,173.475 56.882,173.475ZM199.379,173.332C197.877,173.332 196.357,172.765 195.204,171.585C192.891,169.309 192.891,165.55 195.185,163.265C209.285,149.118 217.039,130.325 217.01,110.379C217.001,90.415 209.2,71.659 195.053,57.522C192.749,55.227 192.749,51.487 195.053,49.174C197.358,46.879 201.126,46.879 203.411,49.174C219.777,65.53 228.787,87.27 228.843,110.379C228.843,133.479 219.862,155.238 203.562,171.604C202.438,172.746 200.89,173.332 199.379,173.332ZM127.356,135.569C114.976,135.569 104.948,125.549 104.948,113.176C104.948,100.81 114.968,90.768 127.356,90.768C139.714,90.768 149.763,100.803 149.763,113.176C149.763,125.549 139.722,135.569 127.356,135.569Z" style="fill:white;fill-opacity:0.2;"/>
        </g>
        <g transform="matrix(0.223165,0.107269,-0.138596,0.172722,665.323,152.585)">
            <path d="M125.524,219.138C115.677,204.924 79.761,153.017 77.618,149.447C70.943,138.37 64.521,125.766 64.521,111.525C64.521,76.426 92.959,47.988 128.051,47.988C163.15,47.988 191.595,76.426 191.617,111.532C191.617,126.982 184.29,139.594 176.102,152.741C174.487,155.326 140.149,205.23 130.585,219.138L130.462,219.138C129.883,219.855 129.05,220.347 128.058,220.347C127.067,220.347 126.234,219.855 125.662,219.138L125.524,219.138ZM39.009,191.367C37.507,191.367 35.996,190.8 34.825,189.667C13.699,168.56 2.046,140.483 2.017,110.612C1.998,80.694 13.605,52.608 34.693,31.464C36.997,29.169 40.746,29.169 43.041,31.464C45.346,33.787 45.346,37.517 43.041,39.84C24.191,58.709 13.803,83.839 13.841,110.584C13.869,137.291 24.276,162.431 43.173,181.281C45.478,183.585 45.497,187.344 43.173,189.658C42.021,190.8 40.52,191.367 39.009,191.367ZM217.252,191.169C215.75,191.169 214.249,190.583 213.106,189.459C210.783,187.136 210.783,183.396 213.068,181.12C231.947,162.166 242.335,137.046 242.316,110.329C242.269,83.622 231.843,58.482 212.917,39.651C210.622,37.347 210.622,33.588 212.917,31.294C215.212,28.989 218.961,28.98 221.275,31.275C242.439,52.372 254.074,80.43 254.121,110.329C254.149,140.191 242.552,168.305 221.445,189.459C220.293,190.583 218.791,191.169 217.252,191.169ZM56.882,173.475C55.381,173.475 53.87,172.899 52.708,171.757C36.323,155.428 27.285,133.698 27.276,110.57C27.238,87.461 36.238,65.702 52.576,49.279C54.861,46.956 58.61,46.956 60.924,49.251C63.247,51.584 63.257,55.323 60.943,57.628C46.824,71.803 39.052,90.606 39.081,110.57C39.081,130.534 46.909,149.299 61.037,163.389C63.361,165.713 63.37,169.452 61.056,171.747C59.914,172.899 58.412,173.475 56.882,173.475ZM199.379,173.332C197.877,173.332 196.357,172.765 195.204,171.585C192.891,169.309 192.891,165.55 195.185,163.265C209.285,149.118 217.039,130.325 217.01,110.379C217.001,90.415 209.2,71.659 195.053,57.522C192.749,55.227 192.749,51.487 195.053,49.174C197.358,46.879 201.126,46.879 203.411,49.174C219.777,65.53 228.787,87.27 228.843,110.379C228.843,133.479 219.862,155.238 203.562,171.604C202.438,172.746 200.89,173.332 199.379,173.332ZM127.356,135.569C114.976,135.569 104.948,125.549 104.948,113.176C104.948,100.81 114.968,90.768 127.356,90.768C139.714,90.768 149.763,100.803 149.763,113.176C149.763,125.549 139.722,135.569 127.356,135.569Z" style="fill:white;fill-opacity:0.2;"/>
        </g>
        <g transform="matrix(1.03377,0,0,0.800102,-341.738,-312.588)">
            <path d="M383.9,439.366C383.576,439.165 383.33,438.837 383.234,438.441C383.044,437.628 383.545,436.821 384.344,436.636C390.96,435.076 396.571,431.045 400.149,425.275C403.719,419.504 404.839,412.679 403.278,406.076C403.091,405.271 403.595,404.46 404.398,404.272C405.203,404.082 406.013,404.583 406.205,405.389C407.945,412.78 406.695,420.397 402.697,426.858C398.7,433.308 392.427,437.823 385.034,439.559C384.635,439.648 384.232,439.573 383.9,439.366ZM360.348,433.106C360.128,428.718 359.334,412.697 359.35,411.639C359.394,408.353 359.698,404.771 361.607,401.697C366.312,394.12 376.264,391.793 383.84,396.498C391.417,401.204 393.745,411.156 389.043,418.738C386.971,422.073 383.699,423.813 380.168,425.554C379.473,425.895 365.37,432.065 361.441,433.785L361.414,433.768C361.193,433.845 360.947,433.84 360.733,433.707C360.519,433.574 360.405,433.356 360.378,433.125L360.348,433.106ZM382.433,433.12C382.109,432.918 381.856,432.592 381.766,432.183C381.572,431.381 382.075,430.57 382.877,430.384C387.818,429.221 392.011,426.203 394.679,421.893C397.354,417.582 398.184,412.488 397.026,407.539C396.836,406.735 397.337,405.928 398.145,405.737C398.95,405.551 399.763,406.056 399.949,406.857C401.289,412.583 400.319,418.484 397.233,423.48C394.137,428.467 389.281,431.96 383.568,433.307C383.172,433.403 382.759,433.322 382.433,433.12ZM371.948,415.311C369.275,413.652 368.454,410.144 370.113,407.473C371.771,404.804 375.28,403.979 377.954,405.64C380.622,407.297 381.446,410.81 379.787,413.481C378.128,416.152 374.617,416.969 371.948,415.311ZM353.858,390.685C352.719,391.905 351.691,393.247 350.792,394.699C347.218,400.468 346.094,407.291 347.646,413.893C347.835,414.7 347.335,415.514 346.523,415.702C346.121,415.794 345.721,415.715 345.395,415.512C345.071,415.311 344.821,414.986 344.72,414.584C342.989,407.196 344.237,399.572 348.236,393.12C348.761,392.274 349.324,391.462 349.923,390.685L353.858,390.685ZM364.749,390.685C361.247,392.218 358.294,394.766 356.243,398.08C353.566,402.39 352.741,407.49 353.901,412.426C354.091,413.239 353.592,414.048 352.785,414.233C352.384,414.328 351.982,414.251 351.652,414.046C351.328,413.845 351.079,413.518 350.981,413.116C349.633,407.394 350.596,401.491 353.694,396.497C355.097,394.231 356.864,392.274 358.912,390.685L364.749,390.685Z" style="fill:white;fill-opacity:0.2;"/>
            <clipPath id="_clip1">
                <path d="M383.9,439.366C383.576,439.165 383.33,438.837 383.234,438.441C383.044,437.628 383.545,436.821 384.344,436.636C390.96,435.076 396.571,431.045 400.149,425.275C403.719,419.504 404.839,412.679 403.278,406.076C403.091,405.271 403.595,404.46 404.398,404.272C405.203,404.082 406.013,404.583 406.205,405.389C407.945,412.78 406.695,420.397 402.697,426.858C398.7,433.308 392.427,437.823 385.034,439.559C384.635,439.648 384.232,439.573 383.9,439.366ZM360.348,433.106C360.128,428.718 359.334,412.697 359.35,411.639C359.394,408.353 359.698,404.771 361.607,401.697C366.312,394.12 376.264,391.793 383.84,396.498C391.417,401.204 393.745,411.156 389.043,418.738C386.971,422.073 383.699,423.813 380.168,425.554C379.473,425.895 365.37,432.065 361.441,433.785L361.414,433.768C361.193,433.845 360.947,433.84 360.733,433.707C360.519,433.574 360.405,433.356 360.378,433.125L360.348,433.106ZM382.433,433.12C382.109,432.918 381.856,432.592 381.766,432.183C381.572,431.381 382.075,430.57 382.877,430.384C387.818,429.221 392.011,426.203 394.679,421.893C397.354,417.582 398.184,412.488 397.026,407.539C396.836,406.735 397.337,405.928 398.145,405.737C398.95,405.551 399.763,406.056 399.949,406.857C401.289,412.583 400.319,418.484 397.233,423.48C394.137,428.467 389.281,431.96 383.568,433.307C383.172,433.403 382.759,433.322 382.433,433.12ZM371.948,415.311C369.275,413.652 368.454,410.144 370.113,407.473C371.771,404.804 375.28,403.979 377.954,405.64C380.622,407.297 381.446,410.81 379.787,413.481C378.128,416.152 374.617,416.969 371.948,415.311ZM353.858,390.685C352.719,391.905 351.691,393.247 350.792,394.699C347.218,400.468 346.094,407.291 347.646,413.893C347.835,414.7 347.335,415.514 346.523,415.702C346.121,415.794 345.721,415.715 345.395,415.512C345.071,415.311 344.821,414.986 344.72,414.584C342.989,407.196 344.237,399.572 348.236,393.12C348.761,392.274 349.324,391.462 349.923,390.685L353.858,390.685ZM364.749,390.685C361.247,392.218 358.294,394.766 356.243,398.08C353.566,402.39 352.741,407.49 353.901,412.426C354.091,413.239 353.592,414.048 352.785,414.233C352.384,414.328 351.982,414.251 351.652,414.046C351.328,413.845 351.079,413.518 350.981,413.116C349.633,407.394 350.596,401.491 353.694,396.497C355.097,394.231 356.864,392.274 358.912,390.685L364.749,390.685Z"/>
            </clipPath>
            <g clip-path="url(#_clip1)">
                <g transform="matrix(0.791217,0.476279,-0.476279,0.791217,517.792,214.624)">
                    <circle cx="181.932" cy="406.425" r="7.858" style="fill:none;stroke:white;stroke-opacity:0.2;stroke-width:3.74px;"/>
                </g>
                <g transform="matrix(0.791217,0.476279,-0.476279,0.791217,824.269,319.062)">
                    <circle cx="181.932" cy="406.425" r="7.858" style="fill:none;stroke:white;stroke-opacity:0.2;stroke-width:3.74px;"/>
                </g>
                <g transform="matrix(0.791217,0.476279,-0.476279,0.791217,1136.46,420.88)">
                    <circle cx="181.932" cy="406.425" r="7.858" style="fill:none;stroke:white;stroke-opacity:0.2;stroke-width:3.74px;"/>
                </g>
                <g transform="matrix(0.791217,0.476279,-0.476279,0.791217,1239.52,111.031)">
                    <circle cx="181.932" cy="406.425" r="7.858" style="fill:none;stroke:white;stroke-opacity:0.2;stroke-width:3.74px;"/>
                </g>
                <g transform="matrix(0.791217,0.476279,-0.476279,0.791217,930.034,8.88912)">
                    <circle cx="181.932" cy="406.425" r="7.858" style="fill:none;stroke:white;stroke-opacity:0.2;stroke-width:3.74px;"/>
                </g>
                <g transform="matrix(0.791217,0.476279,-0.476279,0.791217,722.349,629.048)">
                    <circle cx="181.932" cy="406.425" r="7.858" style="fill:none;stroke:white;stroke-opacity:0.2;stroke-width:3.74px;"/>
                </g>
                <g transform="matrix(0.791217,0.476279,-0.476279,0.791217,412.739,526.184)">
                    <circle cx="181.932" cy="406.425" r="7.858" style="fill:none;stroke:white;stroke-opacity:0.2;stroke-width:3.74px;"/>
                </g>
                <g transform="matrix(4.55428,0,0,3.98156,191.711,252.18)">
                    <g transform="matrix(0.248565,0,0,0.284319,-78.4929,-39.387)">
                        <circle cx="472.708" cy="538.29" r="3.523" style="fill:white;fill-opacity:0.2;"/>
                    </g>
                    <g transform="matrix(0.248565,0,0,0.284319,-41.9894,-37.8131)">
                        <circle cx="472.708" cy="538.29" r="3.523" style="fill:white;fill-opacity:0.2;"/>
                    </g>
                    <g transform="matrix(0.248565,0,0,0.284319,-73.5949,-83.2806)">
                        <circle cx="472.708" cy="538.29" r="3.523" style="fill:white;fill-opacity:0.2;"/>
                    </g>
                    <g transform="matrix(0.248565,0,0,0.284319,-38.0372,-79.4903)">
                        <circle cx="472.708" cy="538.29" r="3.523" style="fill:white;fill-opacity:0.2;"/>
                    </g>
                </g>
                <g transform="matrix(4.38707,1.22272,-1.06896,3.83538,617.027,296.737)">
                    <g transform="matrix(0.248565,0,0,0.284319,-78.4929,-39.387)">
                        <circle cx="472.708" cy="538.29" r="3.523" style="fill:white;fill-opacity:0.2;"/>
                    </g>
                    <g transform="matrix(0.248565,0,0,0.284319,-41.9894,-37.8131)">
                        <circle cx="472.708" cy="538.29" r="3.523" style="fill:white;fill-opacity:0.2;"/>
                    </g>
                    <g transform="matrix(0.248565,0,0,0.284319,-73.5949,-83.2806)">
                        <circle cx="472.708" cy="538.29" r="3.523" style="fill:white;fill-opacity:0.2;"/>
                    </g>
                    <g transform="matrix(0.248565,0,0,0.284319,-38.0372,-79.4903)">
                        <circle cx="472.708" cy="538.29" r="3.523" style="fill:white;fill-opacity:0.2;"/>
                    </g>
                </g>
                <g transform="matrix(1.09047,0.303926,-0.303926,1.09047,249.493,-305.468)">
                    <g>
                        <circle cx="472.708" cy="538.29" r="3.523" style="fill:white;fill-opacity:0.2;"/>
                    </g>
                </g>
                <g transform="matrix(4.38707,1.22272,-1.06896,3.83538,208.343,518.777)">
                    <g transform="matrix(0.248565,0,0,0.284319,-41.9894,-37.8131)">
                        <circle cx="472.708" cy="538.29" r="3.523" style="fill:white;fill-opacity:0.2;"/>
                    </g>
                    <g transform="matrix(0.248565,0,0,0.284319,-73.5949,-83.2806)">
                        <circle cx="472.708" cy="538.29" r="3.523" style="fill:white;fill-opacity:0.2;"/>
                    </g>
                    <g transform="matrix(0.248565,0,0,0.284319,-38.0372,-79.4903)">
                        <circle cx="472.708" cy="538.29" r="3.523" style="fill:white;fill-opacity:0.2;"/>
                    </g>
                </g>
                <g transform="matrix(4.38707,1.22272,-1.06896,3.83538,845.355,713.773)">
                    <g transform="matrix(0.248565,0,0,0.284319,-78.4929,-39.387)">
                        <circle cx="472.708" cy="538.29" r="3.523" style="fill:white;fill-opacity:0.2;"/>
                    </g>
                    <g transform="matrix(0.248565,0,0,0.284319,-41.9894,-37.8131)">
                        <circle cx="472.708" cy="538.29" r="3.523" style="fill:white;fill-opacity:0.2;"/>
                    </g>
                    <g transform="matrix(0.248565,0,0,0.284319,-73.5949,-83.2806)">
                        <circle cx="472.708" cy="538.29" r="3.523" style="fill:white;fill-opacity:0.2;"/>
                    </g>
                    <g transform="matrix(0.248565,0,0,0.284319,-38.0372,-79.4903)">
                        <circle cx="472.708" cy="538.29" r="3.523" style="fill:white;fill-opacity:0.2;"/>
                    </g>
                </g>
                <g transform="matrix(4.38707,1.22272,-1.06896,3.83538,1246.25,516.381)">
                    <g transform="matrix(0.248565,0,0,0.284319,-78.4929,-39.387)">
                        <circle cx="472.708" cy="538.29" r="3.523" style="fill:white;fill-opacity:0.2;"/>
                    </g>
                    <g transform="matrix(0.248565,0,0,0.284319,-74.4164,-83.1946)">
                        <circle cx="472.708" cy="538.29" r="3.523" style="fill:white;fill-opacity:0.2;"/>
                    </g>
                </g>
                <g transform="matrix(4.38707,1.22272,-1.06896,3.83538,1026.31,102.517)">
                    <g transform="matrix(0.248565,0,0,0.284319,-78.4929,-39.387)">
                        <circle cx="472.708" cy="538.29" r="3.523" style="fill:white;fill-opacity:0.2;"/>
                    </g>
                    <g transform="matrix(0.248565,0,0,0.284319,-41.9894,-37.8131)">
                        <circle cx="472.708" cy="538.29" r="3.523" style="fill:white;fill-opacity:0.2;"/>
                    </g>
                    <g transform="matrix(0.248565,0,0,0.284319,-73.5949,-83.2806)">
                        <circle cx="472.708" cy="538.29" r="3.523" style="fill:white;fill-opacity:0.2;"/>
                    </g>
                    <g transform="matrix(0.248565,0,0,0.284319,-38.0372,-79.4903)">
                        <circle cx="472.708" cy="538.29" r="3.523" style="fill:white;fill-opacity:0.2;"/>
                    </g>
                </g>
                <g transform="matrix(4.55428,0,0,3.98156,819.431,456.86)">
                    <g transform="matrix(0.248565,0,0,0.284319,-78.4929,-39.387)">
                        <circle cx="472.708" cy="538.29" r="3.523" style="fill:white;fill-opacity:0.2;"/>
                    </g>
                    <g transform="matrix(0.248565,0,0,0.284319,-41.9894,-37.8131)">
                        <circle cx="472.708" cy="538.29" r="3.523" style="fill:white;fill-opacity:0.2;"/>
                    </g>
                    <g transform="matrix(0.248565,0,0,0.284319,-73.5949,-83.2806)">
                        <circle cx="472.708" cy="538.29" r="3.523" style="fill:white;fill-opacity:0.2;"/>
                    </g>
                    <g transform="matrix(0.248565,0,0,0.284319,-38.0372,-79.4903)">
                        <circle cx="472.708" cy="538.29" r="3.523" style="fill:white;fill-opacity:0.2;"/>
                    </g>
                </g>
                <g transform="matrix(4.55428,0,0,3.98156,593.228,39.7462)">
                    <g transform="matrix(0.248565,0,0,0.284319,-78.4929,-39.387)">
                        <circle cx="472.708" cy="538.29" r="3.523" style="fill:white;fill-opacity:0.2;"/>
                    </g>
                    <g transform="matrix(0.248565,0,0,0.284319,-41.9894,-37.8131)">
                        <circle cx="472.708" cy="538.29" r="3.523" style="fill:white;fill-opacity:0.2;"/>
                    </g>
                </g>
                <g transform="matrix(4.55428,0,0,3.98156,403.919,679.227)">
                    <g transform="matrix(0.248565,0,0,0.284319,-78.4929,-39.387)">
                        <circle cx="472.708" cy="538.29" r="3.523" style="fill:white;fill-opacity:0.2;"/>
                    </g>
                    <g transform="matrix(0.248565,0,0,0.284319,-41.9894,-37.8131)">
                        <circle cx="472.708" cy="538.29" r="3.523" style="fill:white;fill-opacity:0.2;"/>
                    </g>
                    <g transform="matrix(0.248565,0,0,0.284319,-73.5949,-83.2806)">
                        <circle cx="472.708" cy="538.29" r="3.523" style="fill:white;fill-opacity:0.2;"/>
                    </g>
                    <g transform="matrix(0.248565,0,0,0.284319,-38.0372,-79.4903)">
                        <circle cx="472.708" cy="538.29" r="3.523" style="fill:white;fill-opacity:0.2;"/>
                    </g>
                </g>
                <g transform="matrix(4.55428,0,0,3.98156,1023.91,869)">
                    <g transform="matrix(0.248565,0,0,0.284319,-78.4929,-39.387)">
                        <circle cx="472.708" cy="538.29" r="3.523" style="fill:white;fill-opacity:0.2;"/>
                    </g>
                    <g transform="matrix(0.248565,0,0,0.284319,-41.9894,-37.8131)">
                        <circle cx="472.708" cy="538.29" r="3.523" style="fill:white;fill-opacity:0.2;"/>
                    </g>
                    <g transform="matrix(0.248565,0,0,0.284319,-73.5949,-83.2806)">
                        <circle cx="472.708" cy="538.29" r="3.523" style="fill:white;fill-opacity:0.2;"/>
                    </g>
                </g>
                <g transform="matrix(4.55428,0,0,3.98156,617.799,1078.36)">
                    <g transform="matrix(0.248565,0,0,0.284319,-73.5949,-83.2806)">
                        <circle cx="472.708" cy="538.29" r="3.523" style="fill:white;fill-opacity:0.2;"/>
                    </g>
                    <g transform="matrix(0.248565,0,0,0.284319,-38.0372,-79.4903)">
                        <circle cx="472.708" cy="538.29" r="3.523" style="fill:white;fill-opacity:0.2;"/>
                    </g>
                </g>
                <g transform="matrix(4.55428,0,0,3.98156,144.084,938.042)">
                    <g transform="matrix(0.248565,0,0,0.284319,-41.9894,-37.8131)">
                        <circle cx="472.708" cy="538.29" r="3.523" style="fill:white;fill-opacity:0.2;"/>
                    </g>
                    <g transform="matrix(0.248565,0,0,0.284319,-73.5949,-83.2806)">
                        <circle cx="472.708" cy="538.29" r="3.523" style="fill:white;fill-opacity:0.2;"/>
                    </g>
                    <g transform="matrix(0.248565,0,0,0.284319,-38.0372,-79.4903)">
                        <circle cx="472.708" cy="538.29" r="3.523" style="fill:white;fill-opacity:0.2;"/>
                    </g>
                </g>
                <g transform="matrix(0.791217,0.476279,-0.476279,0.791217,619.463,939.109)">
                    <circle cx="181.932" cy="406.425" r="7.858" style="fill:none;stroke:white;stroke-opacity:0.2;stroke-width:3.74px;"/>
                </g>
                <g transform="matrix(0.791217,0.476279,-0.476279,0.791217,1032.58,733.996)">
                    <circle cx="181.932" cy="406.425" r="7.858" style="fill:none;stroke:white;stroke-opacity:0.2;stroke-width:3.74px;"/>
                </g>
                <g transform="matrix(0.791217,0.476279,-0.476279,0.791217,1342.92,836.695)">
                    <circle cx="181.932" cy="406.425" r="7.858" style="fill:none;stroke:white;stroke-opacity:0.2;stroke-width:3.74px;"/>
                </g>
            </g>
        </g>
        <g transform="matrix(0.223165,0.107269,-0.138596,0.172722,234.565,318.67)">
            <path d="M125.524,219.138C115.677,204.924 79.761,153.017 77.618,149.447C70.943,138.37 64.521,125.766 64.521,111.525C64.521,76.426 92.959,47.988 128.051,47.988C163.15,47.988 191.595,76.426 191.617,111.532C191.617,126.982 184.29,139.594 176.102,152.741C174.487,155.326 140.149,205.23 130.585,219.138L130.462,219.138C129.883,219.855 129.05,220.347 128.058,220.347C127.067,220.347 126.234,219.855 125.662,219.138L125.524,219.138ZM39.009,191.367C37.507,191.367 35.996,190.8 34.825,189.667C13.699,168.56 2.046,140.483 2.017,110.612C1.998,80.694 13.605,52.608 34.693,31.464C36.997,29.169 40.746,29.169 43.041,31.464C45.346,33.787 45.346,37.517 43.041,39.84C24.191,58.709 13.803,83.839 13.841,110.584C13.869,137.291 24.276,162.431 43.173,181.281C45.478,183.585 45.497,187.344 43.173,189.658C42.021,190.8 40.52,191.367 39.009,191.367ZM217.252,191.169C215.75,191.169 214.249,190.583 213.106,189.459C210.783,187.136 210.783,183.396 213.068,181.12C231.947,162.166 242.335,137.046 242.316,110.329C242.269,83.622 231.843,58.482 212.917,39.651C210.622,37.347 210.622,33.588 212.917,31.294C215.212,28.989 218.961,28.98 221.275,31.275C242.439,52.372 254.074,80.43 254.121,110.329C254.149,140.191 242.552,168.305 221.445,189.459C220.293,190.583 218.791,191.169 217.252,191.169ZM56.882,173.475C55.381,173.475 53.87,172.899 52.708,171.757C36.323,155.428 27.285,133.698 27.276,110.57C27.238,87.461 36.238,65.702 52.576,49.279C54.861,46.956 58.61,46.956 60.924,49.251C63.247,51.584 63.257,55.323 60.943,57.628C46.824,71.803 39.052,90.606 39.081,110.57C39.081,130.534 46.909,149.299 61.037,163.389C63.361,165.713 63.37,169.452 61.056,171.747C59.914,172.899 58.412,173.475 56.882,173.475ZM199.379,173.332C197.877,173.332 196.357,172.765 195.204,171.585C192.891,169.309 192.891,165.55 195.185,163.265C209.285,149.118 217.039,130.325 217.01,110.379C217.001,90.415 209.2,71.659 195.053,57.522C192.749,55.227 192.749,51.487 195.053,49.174C197.358,46.879 201.126,46.879 203.411,49.174C219.777,65.53 228.787,87.27 228.843,110.379C228.843,133.479 219.862,155.238 203.562,171.604C202.438,172.746 200.89,173.332 199.379,173.332ZM127.356,135.569C114.976,135.569 104.948,125.549 104.948,113.176C104.948,100.81 114.968,90.768 127.356,90.768C139.714,90.768 149.763,100.803 149.763,113.176C149.763,125.549 139.722,135.569 127.356,135.569Z" style="fill:white;fill-opacity:0.2;"/>
        </g>
        <g transform="matrix(0.223165,0.107269,-0.138596,0.172722,871.137,483.531)">
            <path d="M125.524,219.138C115.677,204.924 79.761,153.017 77.618,149.447C70.943,138.37 64.521,125.766 64.521,111.525C64.521,76.426 92.959,47.988 128.051,47.988C163.15,47.988 191.595,76.426 191.617,111.532C191.617,126.982 184.29,139.594 176.102,152.741C174.487,155.326 140.149,205.23 130.585,219.138L130.462,219.138C129.883,219.855 129.05,220.347 128.058,220.347C127.067,220.347 126.234,219.855 125.662,219.138L125.524,219.138ZM39.009,191.367C37.507,191.367 35.996,190.8 34.825,189.667C13.699,168.56 2.046,140.483 2.017,110.612C1.998,80.694 13.605,52.608 34.693,31.464C36.997,29.169 40.746,29.169 43.041,31.464C45.346,33.787 45.346,37.517 43.041,39.84C24.191,58.709 13.803,83.839 13.841,110.584C13.869,137.291 24.276,162.431 43.173,181.281C45.478,183.585 45.497,187.344 43.173,189.658C42.021,190.8 40.52,191.367 39.009,191.367ZM217.252,191.169C215.75,191.169 214.249,190.583 213.106,189.459C210.783,187.136 210.783,183.396 213.068,181.12C231.947,162.166 242.335,137.046 242.316,110.329C242.269,83.622 231.843,58.482 212.917,39.651C210.622,37.347 210.622,33.588 212.917,31.294C215.212,28.989 218.961,28.98 221.275,31.275C242.439,52.372 254.074,80.43 254.121,110.329C254.149,140.191 242.552,168.305 221.445,189.459C220.293,190.583 218.791,191.169 217.252,191.169ZM56.882,173.475C55.381,173.475 53.87,172.899 52.708,171.757C36.323,155.428 27.285,133.698 27.276,110.57C27.238,87.461 36.238,65.702 52.576,49.279C54.861,46.956 58.61,46.956 60.924,49.251C63.247,51.584 63.257,55.323 60.943,57.628C46.824,71.803 39.052,90.606 39.081,110.57C39.081,130.534 46.909,149.299 61.037,163.389C63.361,165.713 63.37,169.452 61.056,171.747C59.914,172.899 58.412,173.475 56.882,173.475ZM199.379,173.332C197.877,173.332 196.357,172.765 195.204,171.585C192.891,169.309 192.891,165.55 195.185,163.265C209.285,149.118 217.039,130.325 217.01,110.379C217.001,90.415 209.2,71.659 195.053,57.522C192.749,55.227 192.749,51.487 195.053,49.174C197.358,46.879 201.126,46.879 203.411,49.174C219.777,65.53 228.787,87.27 228.843,110.379C228.843,133.479 219.862,155.238 203.562,171.604C202.438,172.746 200.89,173.332 199.379,173.332ZM127.356,135.569C114.976,135.569 104.948,125.549 104.948,113.176C104.948,100.81 114.968,90.768 127.356,90.768C139.714,90.768 149.763,100.803 149.763,113.176C149.763,125.549 139.722,135.569 127.356,135.569Z" style="fill:white;fill-opacity:0.2;"/>
        </g>
        <g transform="matrix(0.223165,0.107269,-0.138596,0.172722,448.904,646.369)">
            <path d="M125.524,219.138C115.677,204.924 79.761,153.017 77.618,149.447C70.943,138.37 64.521,125.766 64.521,111.525C64.521,76.426 92.959,47.988 128.051,47.988C163.15,47.988 191.595,76.426 191.617,111.532C191.617,126.982 184.29,139.594 176.102,152.741C174.487,155.326 140.149,205.23 130.585,219.138L130.462,219.138C129.883,219.855 129.05,220.347 128.058,220.347C127.067,220.347 126.234,219.855 125.662,219.138L125.524,219.138ZM39.009,191.367C37.507,191.367 35.996,190.8 34.825,189.667C13.699,168.56 2.046,140.483 2.017,110.612C1.998,80.694 13.605,52.608 34.693,31.464C36.997,29.169 40.746,29.169 43.041,31.464C45.346,33.787 45.346,37.517 43.041,39.84C24.191,58.709 13.803,83.839 13.841,110.584C13.869,137.291 24.276,162.431 43.173,181.281C45.478,183.585 45.497,187.344 43.173,189.658C42.021,190.8 40.52,191.367 39.009,191.367ZM217.252,191.169C215.75,191.169 214.249,190.583 213.106,189.459C210.783,187.136 210.783,183.396 213.068,181.12C231.947,162.166 242.335,137.046 242.316,110.329C242.269,83.622 231.843,58.482 212.917,39.651C210.622,37.347 210.622,33.588 212.917,31.294C215.212,28.989 218.961,28.98 221.275,31.275C242.439,52.372 254.074,80.43 254.121,110.329C254.149,140.191 242.552,168.305 221.445,189.459C220.293,190.583 218.791,191.169 217.252,191.169ZM56.882,173.475C55.381,173.475 53.87,172.899 52.708,171.757C36.323,155.428 27.285,133.698 27.276,110.57C27.238,87.461 36.238,65.702 52.576,49.279C54.861,46.956 58.61,46.956 60.924,49.251C63.247,51.584 63.257,55.323 60.943,57.628C46.824,71.803 39.052,90.606 39.081,110.57C39.081,130.534 46.909,149.299 61.037,163.389C63.361,165.713 63.37,169.452 61.056,171.747C59.914,172.899 58.412,173.475 56.882,173.475ZM199.379,173.332C197.877,173.332 196.357,172.765 195.204,171.585C192.891,169.309 192.891,165.55 195.185,163.265C209.285,149.118 217.039,130.325 217.01,110.379C217.001,90.415 209.2,71.659 195.053,57.522C192.749,55.227 192.749,51.487 195.053,49.174C197.358,46.879 201.126,46.879 203.411,49.174C219.777,65.53 228.787,87.27 228.843,110.379C228.843,133.479 219.862,155.238 203.562,171.604C202.438,172.746 200.89,173.332 199.379,173.332ZM127.356,135.569C114.976,135.569 104.948,125.549 104.948,113.176C104.948,100.81 114.968,90.768 127.356,90.768C139.714,90.768 149.763,100.803 149.763,113.176C149.763,125.549 139.722,135.569 127.356,135.569Z" style="fill:white;fill-opacity:0.2;"/>
        </g>
        <g transform="matrix(1.03377,0,0,0.800102,-341.738,516.077)">
            <path d="M349.923,390.685C353.904,385.526 359.481,381.924 365.901,380.415C366.706,380.228 367.516,380.731 367.704,381.534C367.89,382.344 367.389,383.149 366.581,383.342C361.64,384.5 357.253,387.051 353.858,390.685L349.923,390.685ZM358.912,390.685C361.375,388.775 364.245,387.398 367.373,386.658C368.178,386.463 368.987,386.966 369.179,387.771C369.368,388.586 368.869,389.395 368.06,389.582C366.913,389.853 365.806,390.223 364.749,390.685L358.912,390.685Z" style="fill:white;fill-opacity:0.2;"/>
        </g>
        <g transform="matrix(-0.442481,0.284419,-0.367482,-0.342466,881.356,422.687)">
            <path d="M148.79,475.313C148.79,475.313 162.013,465.281 173.66,471.243C190.128,479.673 180.493,497.956 198.703,505.383C214.158,511.687 223.829,500.371 223.829,500.371" style="fill:none;stroke:white;stroke-opacity:0.2;stroke-width:6.2px;"/>
        </g>
        <g transform="matrix(-0.442481,0.284419,-0.367482,-0.342466,1205.74,505.347)">
            <path d="M148.79,475.313C148.79,475.313 162.013,465.281 173.66,471.243C190.128,479.673 180.493,497.956 198.703,505.383C214.158,511.687 223.829,500.371 223.829,500.371" style="fill:none;stroke:white;stroke-opacity:0.2;stroke-width:6.2px;"/>
        </g>
        <g transform="matrix(-0.442481,0.284419,-0.367482,-0.342466,1307.89,259.977)">
            <path d="M148.79,475.313C148.79,475.313 162.013,465.281 173.66,471.243C190.128,479.673 180.493,497.956 198.703,505.383C214.158,511.687 223.829,500.371 223.829,500.371" style="fill:none;stroke:white;stroke-opacity:0.2;stroke-width:6.2px;"/>
        </g>
        <g transform="matrix(-0.442481,0.284419,-0.367482,-0.342466,561.841,341.512)">
            <path d="M148.79,475.313C148.79,475.313 162.013,465.281 173.66,471.243C190.128,479.673 180.493,497.956 198.703,505.383C214.158,511.687 223.829,500.371 223.829,500.371" style="fill:none;stroke:white;stroke-opacity:0.2;stroke-width:6.2px;"/>
        </g>
        <g transform="matrix(-0.442481,0.284419,-0.367482,-0.342466,453.6,590.092)">
            <path d="M148.79,475.313C148.79,475.313 162.013,465.281 173.66,471.243C190.128,479.673 180.493,497.956 198.703,505.383C214.158,511.687 223.829,500.371 223.829,500.371" style="fill:none;stroke:white;stroke-opacity:0.2;stroke-width:6.2px;"/>
        </g>
        <g transform="matrix(-0.442481,0.284419,-0.367482,-0.342466,349.367,839.034)">
            <path d="M148.79,475.313C148.79,475.313 162.013,465.281 173.66,471.243C190.128,479.673 180.493,497.956 198.703,505.383C214.158,511.687 223.829,500.371 223.829,500.371" style="fill:none;stroke:white;stroke-opacity:0.2;stroke-width:6.2px;"/>
        </g>
        <g transform="matrix(-0.442481,0.284419,-0.367482,-0.342466,993.144,177.348)">
            <path d="M148.79,475.313C148.79,475.313 162.013,465.281 173.66,471.243C190.128,479.673 180.493,497.956 198.703,505.383C214.158,511.687 223.829,500.371 223.829,500.371" style="fill:none;stroke:white;stroke-opacity:0.2;stroke-width:6.2px;"/>
        </g>
        <g transform="matrix(-0.442481,0.284419,-0.367482,-0.342466,771.707,672.592)">
            <path d="M148.79,475.313C148.79,475.313 162.013,465.281 173.66,471.243C190.128,479.673 180.493,497.956 198.703,505.383C214.158,511.687 223.829,500.371 223.829,500.371" style="fill:none;stroke:white;stroke-opacity:0.2;stroke-width:6.2px;"/>
        </g>
        <g transform="matrix(-0.442481,0.284419,-0.367482,-0.342466,669.611,922.011)">
            <path d="M148.79,475.313C148.79,475.313 162.013,465.281 173.66,471.243C190.128,479.673 180.493,497.956 198.703,505.383C214.158,511.687 223.829,500.371 223.829,500.371" style="fill:none;stroke:white;stroke-opacity:0.2;stroke-width:6.2px;"/>
        </g>
        <g transform="matrix(-0.442481,0.284419,-0.367482,-0.342466,1099.57,755.47)">
            <path d="M148.79,475.313C148.79,475.313 162.013,465.281 173.66,471.243C190.128,479.673 180.493,497.956 198.703,505.383C214.158,511.687 223.829,500.371 223.829,500.371" style="fill:none;stroke:white;stroke-opacity:0.2;stroke-width:6.2px;"/>
        </g>
        <g transform="matrix(0.349596,0.353505,-0.456745,0.270575,459.405,441.985)">
            <path d="M148.79,475.313C148.79,475.313 162.013,465.281 173.66,471.243C190.128,479.673 180.493,497.956 198.703,505.383C214.158,511.687 223.829,500.371 223.829,500.371" style="fill:none;stroke:white;stroke-opacity:0.2;stroke-width:6.2px;"/>
        </g>
        <g transform="matrix(0.349596,0.353505,-0.456745,0.270575,245.239,113.005)">
            <path d="M148.79,475.313C148.79,475.313 162.013,465.281 173.66,471.243C190.128,479.673 180.493,497.956 198.703,505.383C214.158,511.687 223.829,500.371 223.829,500.371" style="fill:none;stroke:white;stroke-opacity:0.2;stroke-width:6.2px;"/>
        </g>
        <g transform="matrix(0.349596,0.353505,-0.456745,0.270575,348.833,-138.851)">
            <path d="M148.79,475.313C148.79,475.313 162.013,465.281 173.66,471.243C190.128,479.673 180.493,497.956 198.703,505.383C214.158,511.687 223.829,500.371 223.829,500.371" style="fill:none;stroke:white;stroke-opacity:0.2;stroke-width:6.2px;"/>
        </g>
        <g transform="matrix(0.349596,0.353505,-0.456745,0.270575,669.577,-55.1496)">
            <path d="M148.79,475.313C148.79,475.313 162.013,465.281 173.66,471.243C190.128,479.673 180.493,497.956 198.703,505.383C214.158,511.687 223.829,500.371 223.829,500.371" style="fill:none;stroke:white;stroke-opacity:0.2;stroke-width:6.2px;"/>
        </g>
        <g transform="matrix(0.349596,0.353505,-0.456745,0.270575,990.358,30.7646)">
            <path d="M148.79,475.313C148.79,475.313 162.013,465.281 173.66,471.243C190.128,479.673 180.493,497.956 198.703,505.383C214.158,511.687 223.829,500.371 223.829,500.371" style="fill:none;stroke:white;stroke-opacity:0.2;stroke-width:6.2px;"/>
        </g>
        <g transform="matrix(0.349596,0.353505,-0.456745,0.270575,885.252,276.382)">
            <path d="M148.79,475.313C148.79,475.313 162.013,465.281 173.66,471.243C190.128,479.673 180.493,497.956 198.703,505.383C214.158,511.687 223.829,500.371 223.829,500.371" style="fill:none;stroke:white;stroke-opacity:0.2;stroke-width:6.2px;"/>
        </g>
        <g transform="matrix(0.349596,0.353505,-0.456745,0.270575,778.039,527.198)">
            <path d="M148.79,475.313C148.79,475.313 162.013,465.281 173.66,471.243C190.128,479.673 180.493,497.956 198.703,505.383C214.158,511.687 223.829,500.371 223.829,500.371" style="fill:none;stroke:white;stroke-opacity:0.2;stroke-width:6.2px;"/>
        </g>
        <g transform="matrix(0.349596,0.353505,-0.456745,0.270575,1100.2,610.073)">
            <path d="M148.79,475.313C148.79,475.313 162.013,465.281 173.66,471.243C190.128,479.673 180.493,497.956 198.703,505.383C214.158,511.687 223.829,500.371 223.829,500.371" style="fill:none;stroke:white;stroke-opacity:0.2;stroke-width:6.2px;"/>
        </g>
        <g transform="matrix(0.349596,0.353505,-0.456745,0.270575,564.373,193.421)">
            <path d="M148.79,475.313C148.79,475.313 162.013,465.281 173.66,471.243C190.128,479.673 180.493,497.956 198.703,505.383C214.158,511.687 223.829,500.371 223.829,500.371" style="fill:none;stroke:white;stroke-opacity:0.2;stroke-width:6.2px;"/>
        </g>
    </g>
</svg>
