<?xml version="1.0" encoding="UTF-8" standalone="no"?>
<!DOCTYPE svg PUBLIC "-//W3C//DTD SVG 1.1//EN" "http://www.w3.org/Graphics/SVG/1.1/DTD/svg11.dtd">
<svg width="100%" height="100%" viewBox="0 0 276 41" version="1.1" xmlns="http://www.w3.org/2000/svg" xmlns:xlink="http://www.w3.org/1999/xlink" xml:space="preserve" xmlns:serif="http://www.serif.com/" style="fill-rule:evenodd;clip-rule:evenodd;stroke-linejoin:round;stroke-miterlimit:1.41421;">
    <g id="Artboard1" transform="matrix(0.989433,0,0,0.949577,-165.891,-49.4949)">
        <g transform="matrix(1.01068,0,0,1.0531,-19.4937,-4.92453)">
            <path d="M371.472,76.317C370.984,75.78 370.504,75.234 370.032,74.681L372.446,71.73L374.055,73.339C374.515,73.799 374.962,74.221 375.397,74.604C376.623,70.312 378.475,66.365 380.953,62.763C383.175,59.519 385.628,56.964 388.31,55.099L394.786,59.736C394.122,63.389 392.915,66.761 391.165,69.852C389.415,72.943 387.199,75.575 384.517,77.746C387.58,77.228 390.59,76.524 393.545,75.636C394.023,74.111 394.717,72.656 395.629,71.27C397.009,69.252 398.574,67.655 400.323,66.48C402.073,65.305 403.753,64.462 405.362,63.951L411.838,69.316C411.2,71.973 409.986,73.901 408.198,75.102C406.41,76.303 404.277,76.903 401.799,76.903C400.598,76.903 399.653,76.814 398.963,76.635C398.554,77.631 398.299,78.87 398.197,80.352C402.591,80.096 406.831,79.113 410.919,77.401C412.006,76.958 413.062,76.452 414.086,75.882C414.565,74.267 415.285,72.73 416.245,71.27C417.625,69.252 419.189,67.655 420.939,66.48C422.689,65.305 424.369,64.462 425.978,63.951L432.454,69.316C431.816,71.973 430.602,73.901 428.814,75.102C427.026,76.303 424.893,76.903 422.415,76.903C421.214,76.903 420.269,76.814 419.579,76.635C419.17,77.631 418.915,78.87 418.813,80.352C423.207,80.096 427.447,79.113 431.535,77.401C432.615,76.961 433.664,76.458 434.682,75.892C434.763,75.59 434.85,75.288 434.945,74.987C435.558,73.046 436.465,71.296 437.666,69.737C438.867,68.179 440.355,66.882 442.13,65.848C443.906,64.813 445.956,64.194 448.28,63.989L450.388,67.208C452.381,63.351 454.475,59.927 456.672,56.939L460.389,60.157C457.86,63.376 455.242,67.949 452.534,73.876C451.716,75.664 450.988,77.414 450.35,79.126C453.083,78.308 455.944,77.069 458.933,75.409L459.776,79.279C458.039,80.582 455.229,82.178 451.346,84.069C450.247,84.58 449.366,84.95 448.702,85.18L445.751,81.885C443.733,83.468 441.408,84.618 438.777,85.333L434.026,80.927C434.026,80.821 434.026,80.715 434.028,80.609C432.193,81.58 430.149,82.465 427.894,83.264C424.446,84.49 421.188,85.18 418.123,85.333L413.371,80.927C413.371,80.827 413.372,80.728 413.374,80.629C411.549,81.593 409.517,82.471 407.278,83.264C403.83,84.49 400.573,85.18 397.507,85.333L392.755,80.927C392.755,80.613 392.763,80.301 392.778,79.992C388.858,81.156 384.61,82.196 380.033,83.111L377.696,81.616C375.831,86.164 374.298,90.685 373.097,95.181L368.499,91.886C369.633,88.176 371.205,84.127 373.213,79.74C370.967,81.126 368.131,82.544 364.705,83.992C363.479,84.503 362.304,84.95 361.18,85.333L357.118,81.271C358.779,77.465 360.554,74.182 362.445,71.423C360.656,71.577 359.072,71.679 357.693,71.73C357.284,72.496 356.186,74.412 354.397,77.478L351.562,79.279L351.518,79.253L351.523,79.279C349.148,80.786 346.338,82.115 343.093,83.264C339.644,84.49 336.387,85.18 333.322,85.333L328.57,80.927C328.57,80.767 328.572,80.608 328.576,80.45C325.608,81.798 321.863,83.03 317.342,84.145C315.554,84.605 313.753,85.001 311.939,85.333L308.376,82.076C306.179,87.032 304.544,91.401 303.471,95.181L299.102,92.231C300.23,88.838 301.521,85.439 302.975,82.033C302.091,82.507 301.12,83.007 300.06,83.532C298.681,84.222 297.429,84.771 296.305,85.18L292.933,81.425C291.323,82.958 289.254,84.26 286.725,85.333L281.688,80.978C280.064,81.802 278.141,82.59 275.919,83.341C272.496,84.49 269.341,85.257 266.454,85.64C264.615,84.414 263.005,83.251 261.626,82.153C260.374,81.054 259.007,79.739 257.526,78.206L261.472,75.409C263.261,77.273 264.576,78.519 265.419,79.145C266.262,79.771 267.016,80.301 267.68,80.735C268.396,80.658 269.558,80.416 271.167,80.007L264.806,73.991C264.219,73.378 263.759,72.828 263.427,72.343C264.398,70.606 266.071,68.805 268.447,66.94C270.669,65.203 272.79,64.04 274.808,63.453L280.939,68.396C280.505,70.133 279.483,72.432 277.873,75.294L273.773,72.228C274.31,71.436 274.782,70.58 275.191,69.661C275.6,68.741 275.842,68.128 275.919,67.821C274.488,68.358 273.019,69.329 271.512,70.734C270.976,71.245 270.49,71.768 270.056,72.305C270.541,73.046 271.282,73.825 272.279,74.642C273.965,76.098 275.382,77.35 276.532,78.398C278.941,77.573 281.036,76.73 282.818,75.868C283.225,74.7 283.723,73.537 284.311,72.381C285.742,69.571 287.581,66.646 289.829,63.606L293.776,66.633C290.199,71.462 287.939,75.856 286.993,79.815C287.019,79.815 287.255,79.745 287.702,79.605C288.149,79.464 288.73,79.189 289.446,78.781C291.26,77.759 292.933,76.29 294.466,74.374C296.254,70.746 297.965,67.783 299.6,65.484L303.701,68.664C301.299,72.19 299.345,75.677 297.838,79.126L297.684,79.202C299.319,78.768 301.101,78.104 303.03,77.21C304.192,76.671 305.102,76.239 305.759,75.913C307.717,71.858 309.905,67.794 312.323,63.721L316.193,66.557L314.162,70.35C315.848,68.843 318.083,67.31 320.868,65.752L325.504,69.392C325.3,71.436 324.968,73.199 324.508,74.681C324.048,76.162 323.295,77.44 322.247,78.512C324.716,77.712 327.073,76.8 329.317,75.774C329.796,74.199 330.505,72.698 331.444,71.27C332.824,69.252 334.388,67.655 336.138,66.48C337.888,65.305 339.568,64.462 341.177,63.951L347.653,69.316C347.015,71.973 345.801,73.901 344.013,75.102C342.225,76.303 340.091,76.903 337.613,76.903C336.413,76.903 335.468,76.814 334.778,76.635C334.369,77.631 334.114,78.87 334.011,80.352C338.405,80.096 342.646,79.113 346.734,77.401C347.271,77.182 347.8,76.948 348.322,76.698C350.223,74.63 351.52,73.165 352.213,72.305C352.954,71.385 353.593,70.593 354.129,69.929C353.388,69.111 352.673,68.179 351.983,67.132C353.21,65.471 354.742,63.747 356.582,61.958L360.145,64.717C359.864,65.893 359.622,66.748 359.417,67.285C362.713,66.927 365.089,66.57 366.545,66.212C368.001,65.854 369.265,65.535 370.338,65.254L371.411,69.814C370.364,70.12 369.265,70.389 368.116,70.619C366.353,73.403 364.884,76.354 363.709,79.47C366.943,78.36 369.531,77.309 371.472,76.317ZM308.835,81.042C311.594,80.607 313.613,80.135 314.89,79.624C316.729,78.755 318.185,76.916 319.258,74.106C319.616,73.237 319.859,72.343 319.986,71.423C317.381,72.803 314.992,74.285 312.821,75.868C312.08,76.405 311.288,76.992 310.445,77.631L308.835,81.042ZM439.39,79.815C442.124,79.075 444.615,77.261 446.863,74.374C447.527,72.918 448.025,71.104 448.357,68.933C445.726,69.188 443.567,70.35 441.881,72.42C440.221,74.463 439.39,76.929 439.39,79.815ZM379.037,77.401C381.643,75.204 384.018,72.356 386.164,68.856C388.234,65.433 389.485,62.444 389.92,59.889C384.529,65.279 380.902,71.117 379.037,77.401ZM400.573,73.186C402.054,73.186 403.344,72.777 404.443,71.96C405.72,70.989 406.359,69.635 406.359,67.898C403.779,69.303 401.85,71.066 400.573,73.186ZM336.387,73.186C337.869,73.186 339.159,72.777 340.258,71.96C341.535,70.989 342.174,69.635 342.174,67.898C339.593,69.303 337.665,71.066 336.387,73.186ZM421.188,73.186C422.67,73.186 423.96,72.777 425.059,71.96C426.336,70.989 426.975,69.635 426.975,67.898C424.395,69.303 422.466,71.066 421.188,73.186Z"/>
        </g>
        <g transform="matrix(2.20882,0,0,2.30153,214.357,83.4434)">
            <path d="M0,-5.16C-0.002,-7.177 -1.64,-8.811 -3.665,-8.809C-5.681,-8.807 -7.313,-7.17 -7.311,-5.153C-7.313,-7.17 -8.949,-8.804 -10.971,-8.802C-12.995,-8.8 -14.628,-7.163 -14.625,-5.145C-14.625,-4.03 -14.117,-3.051 -13.34,-2.383L-7.291,3.651L-1.152,-2.498C-0.445,-3.164 0,-4.107 0,-5.16" style="fill:rgb(132,96,244);fill-rule:nonzero;"/>
        </g>
        <g transform="matrix(2.20882,0,0,2.30153,214.886,57.0257)">
            <path d="M0,13.39C-0.159,13.39 -0.32,13.33 -0.442,13.205C-0.687,12.964 -0.687,12.566 -0.444,12.324C1.049,10.826 1.87,8.836 1.867,6.724C1.866,4.61 1.04,2.624 -0.458,1.127C-0.702,0.884 -0.702,0.488 -0.458,0.243C-0.214,0 0.185,0 0.427,0.243C2.16,1.975 3.114,4.277 3.12,6.724C3.12,9.17 2.169,11.474 0.443,13.207C0.324,13.328 0.16,13.39 0,13.39" style="fill:rgb(132,96,244);fill-rule:nonzero;"/>
        </g>
        <g transform="matrix(2.20882,0,0,2.30153,219.066,52.6636)">
            <path d="M0,17.174C-0.159,17.174 -0.318,17.112 -0.439,16.993C-0.685,16.747 -0.685,16.351 -0.443,16.11C1.556,14.103 2.656,11.443 2.654,8.614C2.649,5.786 1.545,3.124 -0.459,1.13C-0.702,0.886 -0.702,0.488 -0.459,0.245C-0.216,0.001 0.181,0 0.426,0.243C2.667,2.477 3.899,5.448 3.904,8.614C3.907,11.776 2.679,14.753 0.444,16.993C0.322,17.112 0.163,17.174 0,17.174" style="fill:rgb(132,96,244);fill-rule:nonzero;"/>
        </g>
        <g transform="matrix(2.20882,0,0,2.30153,181.557,57.0446)">
            <path d="M0,13.397C-0.159,13.397 -0.319,13.336 -0.442,13.215C-2.177,11.486 -3.134,9.185 -3.135,6.736C-3.139,4.289 -2.186,1.985 -0.456,0.246C-0.214,0 0.183,0 0.428,0.243C0.674,0.49 0.675,0.886 0.43,1.13C-1.065,2.631 -1.888,4.622 -1.885,6.736C-1.885,8.85 -1.056,10.837 0.44,12.329C0.686,12.575 0.687,12.971 0.442,13.214C0.321,13.336 0.162,13.397 0,13.397" style="fill:rgb(132,96,244);fill-rule:nonzero;"/>
        </g>
        <g transform="matrix(2.20882,0,0,2.30153,177.377,52.7097)">
            <path d="M0,17.175C-0.159,17.175 -0.319,17.115 -0.443,16.995C-2.68,14.76 -3.914,11.787 -3.917,8.624C-3.919,5.456 -2.69,2.482 -0.457,0.243C-0.213,0 0.184,0 0.427,0.243C0.671,0.489 0.671,0.884 0.427,1.13C-1.569,3.128 -2.669,5.789 -2.665,8.621C-2.662,11.449 -1.56,14.111 0.441,16.107C0.685,16.351 0.687,16.749 0.441,16.994C0.319,17.115 0.16,17.175 0,17.175" style="fill:rgb(132,96,244);fill-rule:nonzero;"/>
        </g>
    </g>
</svg>
