<?xml version="1.0" encoding="UTF-8" standalone="no"?>
<!DOCTYPE svg PUBLIC "-//W3C//DTD SVG 1.1//EN" "http://www.w3.org/Graphics/SVG/1.1/DTD/svg11.dtd">
<svg width="100%" height="100%" viewBox="0 0 1250 1250" version="1.1" xmlns="http://www.w3.org/2000/svg" xmlns:xlink="http://www.w3.org/1999/xlink" xml:space="preserve" xmlns:serif="http://www.serif.com/" style="fill-rule:evenodd;clip-rule:evenodd;stroke-linecap:round;stroke-linejoin:round;stroke-miterlimit:1.5;">
    <g id="Artboard1" transform="matrix(1.16749,0,0,1.50845,0,3.42981e-13)">
        <rect x="0" y="0" width="1070.67" height="828.668" style="fill:none;"/>
        <clipPath id="_clip1">
            <rect x="0" y="0" width="1070.67" height="828.668"/>
        </clipPath>
        <g clip-path="url(#_clip1)">
            <g transform="matrix(-0.442476,0.284417,-0.367478,-0.342464,881.342,423.348)">
                <path d="M148.79,475.313C148.79,475.313 162.013,465.281 173.66,471.243C190.128,479.673 180.493,497.956 198.703,505.383C214.158,511.687 223.829,500.371 223.829,500.371" style="fill:none;stroke:white;stroke-opacity:0.2;stroke-width:6.2px;"/>
            </g>
            <g transform="matrix(-0.442476,0.284417,-0.367478,-0.342464,1205.72,506.007)">
                <path d="M148.79,475.313C148.79,475.313 162.013,465.281 173.66,471.243C190.128,479.673 180.493,497.956 198.703,505.383C214.158,511.687 223.829,500.371 223.829,500.371" style="fill:none;stroke:white;stroke-opacity:0.2;stroke-width:6.2px;"/>
            </g>
            <g transform="matrix(-0.442476,0.284417,-0.367478,-0.342464,1307.88,260.639)">
                <path d="M148.79,475.313C148.79,475.313 162.013,465.281 173.66,471.243C190.128,479.673 180.493,497.956 198.703,505.383C214.158,511.687 223.829,500.371 223.829,500.371" style="fill:none;stroke:white;stroke-opacity:0.2;stroke-width:6.2px;"/>
            </g>
            <g transform="matrix(-0.442476,0.284417,-0.367478,-0.342464,561.831,342.173)">
                <path d="M148.79,475.313C148.79,475.313 162.013,465.281 173.66,471.243C190.128,479.673 180.493,497.956 198.703,505.383C214.158,511.687 223.829,500.371 223.829,500.371" style="fill:none;stroke:white;stroke-opacity:0.2;stroke-width:6.2px;"/>
            </g>
            <g transform="matrix(-0.442476,0.284417,-0.367478,-0.342464,453.591,590.751)">
                <path d="M148.79,475.313C148.79,475.313 162.013,465.281 173.66,471.243C190.128,479.673 180.493,497.956 198.703,505.383C214.158,511.687 223.829,500.371 223.829,500.371" style="fill:none;stroke:white;stroke-opacity:0.2;stroke-width:6.2px;"/>
            </g>
            <g transform="matrix(-0.442476,0.284417,-0.367478,-0.342464,349.359,839.692)">
                <path d="M148.79,475.313C148.79,475.313 162.013,465.281 173.66,471.243C190.128,479.673 180.493,497.956 198.703,505.383C214.158,511.687 223.829,500.371 223.829,500.371" style="fill:none;stroke:white;stroke-opacity:0.2;stroke-width:6.2px;"/>
            </g>
            <g transform="matrix(-0.442476,0.284417,-0.367478,-0.342464,993.129,178.009)">
                <path d="M148.79,475.313C148.79,475.313 162.013,465.281 173.66,471.243C190.128,479.673 180.493,497.956 198.703,505.383C214.158,511.687 223.829,500.371 223.829,500.371" style="fill:none;stroke:white;stroke-opacity:0.2;stroke-width:6.2px;"/>
            </g>
            <g transform="matrix(-0.442476,0.284417,-0.367478,-0.342464,771.694,673.251)">
                <path d="M148.79,475.313C148.79,475.313 162.013,465.281 173.66,471.243C190.128,479.673 180.493,497.956 198.703,505.383C214.158,511.687 223.829,500.371 223.829,500.371" style="fill:none;stroke:white;stroke-opacity:0.2;stroke-width:6.2px;"/>
            </g>
            <g transform="matrix(-0.442476,0.284417,-0.367478,-0.342464,669.6,922.668)">
                <path d="M148.79,475.313C148.79,475.313 162.013,465.281 173.66,471.243C190.128,479.673 180.493,497.956 198.703,505.383C214.158,511.687 223.829,500.371 223.829,500.371" style="fill:none;stroke:white;stroke-opacity:0.2;stroke-width:6.2px;"/>
            </g>
            <g transform="matrix(-0.442476,0.284417,-0.367478,-0.342464,1099.56,756.129)">
                <path d="M148.79,475.313C148.79,475.313 162.013,465.281 173.66,471.243C190.128,479.673 180.493,497.956 198.703,505.383C214.158,511.687 223.829,500.371 223.829,500.371" style="fill:none;stroke:white;stroke-opacity:0.2;stroke-width:6.2px;"/>
            </g>
            <g transform="matrix(0.349592,0.353503,-0.45674,0.270574,459.396,442.646)">
                <path d="M148.79,475.313C148.79,475.313 162.013,465.281 173.66,471.243C190.128,479.673 180.493,497.956 198.703,505.383C214.158,511.687 223.829,500.371 223.829,500.371" style="fill:none;stroke:white;stroke-opacity:0.2;stroke-width:6.2px;"/>
            </g>
            <g transform="matrix(0.349592,0.353503,-0.45674,0.270574,245.232,113.667)">
                <path d="M148.79,475.313C148.79,475.313 162.013,465.281 173.66,471.243C190.128,479.673 180.493,497.956 198.703,505.383C214.158,511.687 223.829,500.371 223.829,500.371" style="fill:none;stroke:white;stroke-opacity:0.2;stroke-width:6.2px;"/>
            </g>
            <g transform="matrix(0.349592,0.353503,-0.45674,0.270574,348.825,-138.187)">
                <path d="M148.79,475.313C148.79,475.313 162.013,465.281 173.66,471.243C190.128,479.673 180.493,497.956 198.703,505.383C214.158,511.687 223.829,500.371 223.829,500.371" style="fill:none;stroke:white;stroke-opacity:0.2;stroke-width:6.2px;"/>
            </g>
            <g transform="matrix(0.349592,0.353503,-0.45674,0.270574,669.566,-54.4863)">
                <path d="M148.79,475.313C148.79,475.313 162.013,465.281 173.66,471.243C190.128,479.673 180.493,497.956 198.703,505.383C214.158,511.687 223.829,500.371 223.829,500.371" style="fill:none;stroke:white;stroke-opacity:0.2;stroke-width:6.2px;"/>
            </g>
            <g transform="matrix(0.349592,0.353503,-0.45674,0.270574,990.344,31.4273)">
                <path d="M148.79,475.313C148.79,475.313 162.013,465.281 173.66,471.243C190.128,479.673 180.493,497.956 198.703,505.383C214.158,511.687 223.829,500.371 223.829,500.371" style="fill:none;stroke:white;stroke-opacity:0.2;stroke-width:6.2px;"/>
            </g>
            <g transform="matrix(0.349592,0.353503,-0.45674,0.270574,885.238,277.043)">
                <path d="M148.79,475.313C148.79,475.313 162.013,465.281 173.66,471.243C190.128,479.673 180.493,497.956 198.703,505.383C214.158,511.687 223.829,500.371 223.829,500.371" style="fill:none;stroke:white;stroke-opacity:0.2;stroke-width:6.2px;"/>
            </g>
            <g transform="matrix(0.349592,0.353503,-0.45674,0.270574,778.027,527.857)">
                <path d="M148.79,475.313C148.79,475.313 162.013,465.281 173.66,471.243C190.128,479.673 180.493,497.956 198.703,505.383C214.158,511.687 223.829,500.371 223.829,500.371" style="fill:none;stroke:white;stroke-opacity:0.2;stroke-width:6.2px;"/>
            </g>
            <g transform="matrix(0.349592,0.353503,-0.45674,0.270574,1100.18,610.732)">
                <path d="M148.79,475.313C148.79,475.313 162.013,465.281 173.66,471.243C190.128,479.673 180.493,497.956 198.703,505.383C214.158,511.687 223.829,500.371 223.829,500.371" style="fill:none;stroke:white;stroke-opacity:0.2;stroke-width:6.2px;"/>
            </g>
            <g transform="matrix(0.349592,0.353503,-0.45674,0.270574,564.363,194.082)">
                <path d="M148.79,475.313C148.79,475.313 162.013,465.281 173.66,471.243C190.128,479.673 180.493,497.956 198.703,505.383C214.158,511.687 223.829,500.371 223.829,500.371" style="fill:none;stroke:white;stroke-opacity:0.2;stroke-width:6.2px;"/>
            </g>
            <g transform="matrix(0.817926,0.381069,-0.492357,0.63305,193.533,-140.203)">
                <circle cx="181.932" cy="406.425" r="7.858" style="fill:none;stroke:white;stroke-opacity:0.2;stroke-width:3.74px;"/>
            </g>
            <g transform="matrix(0.817926,0.381069,-0.492357,0.63305,510.355,-56.6427)">
                <circle cx="181.932" cy="406.425" r="7.858" style="fill:none;stroke:white;stroke-opacity:0.2;stroke-width:3.74px;"/>
            </g>
            <g transform="matrix(0.817926,0.381069,-0.492357,0.63305,833.082,24.8219)">
                <circle cx="181.932" cy="406.425" r="7.858" style="fill:none;stroke:white;stroke-opacity:0.2;stroke-width:3.74px;"/>
            </g>
            <g transform="matrix(0.817926,0.381069,-0.492357,0.63305,939.623,-223.088)">
                <circle cx="181.932" cy="406.425" r="7.858" style="fill:none;stroke:white;stroke-opacity:0.2;stroke-width:3.74px;"/>
            </g>
            <g transform="matrix(0.817926,0.381069,-0.492357,0.63305,619.691,-304.811)">
                <circle cx="181.932" cy="406.425" r="7.858" style="fill:none;stroke:white;stroke-opacity:0.2;stroke-width:3.74px;"/>
            </g>
            <g transform="matrix(0.817926,0.381069,-0.492357,0.63305,404.995,191.376)">
                <circle cx="181.932" cy="406.425" r="7.858" style="fill:none;stroke:white;stroke-opacity:0.2;stroke-width:3.74px;"/>
            </g>
            <g transform="matrix(0.817926,0.381069,-0.492357,0.63305,84.9336,109.075)">
                <circle cx="181.932" cy="406.425" r="7.858" style="fill:none;stroke:white;stroke-opacity:0.2;stroke-width:3.74px;"/>
            </g>
            <g transform="matrix(4.70802,0,0,3.18563,-143.556,-110.155)">
                <g transform="matrix(0.248565,0,0,0.284319,-78.4929,-39.387)">
                    <circle cx="472.708" cy="538.29" r="3.523" style="fill:white;fill-opacity:0.2;"/>
                </g>
                <g transform="matrix(0.248565,0,0,0.284319,-41.9894,-37.8131)">
                    <circle cx="472.708" cy="538.29" r="3.523" style="fill:white;fill-opacity:0.2;"/>
                </g>
                <g transform="matrix(0.248565,0,0,0.284319,-73.5949,-83.2806)">
                    <circle cx="472.708" cy="538.29" r="3.523" style="fill:white;fill-opacity:0.2;"/>
                </g>
                <g transform="matrix(0.248565,0,0,0.284319,-38.0372,-79.4903)">
                    <circle cx="472.708" cy="538.29" r="3.523" style="fill:white;fill-opacity:0.2;"/>
                </g>
            </g>
            <g transform="matrix(4.53517,0.978299,-1.10505,3.06868,296.117,-74.5048)">
                <g transform="matrix(0.248565,0,0,0.284319,-78.4929,-39.387)">
                    <circle cx="472.708" cy="538.29" r="3.523" style="fill:white;fill-opacity:0.2;"/>
                </g>
                <g transform="matrix(0.248565,0,0,0.284319,-41.9894,-37.8131)">
                    <circle cx="472.708" cy="538.29" r="3.523" style="fill:white;fill-opacity:0.2;"/>
                </g>
                <g transform="matrix(0.248565,0,0,0.284319,-73.5949,-83.2806)">
                    <circle cx="472.708" cy="538.29" r="3.523" style="fill:white;fill-opacity:0.2;"/>
                </g>
                <g transform="matrix(0.248565,0,0,0.284319,-38.0372,-79.4903)">
                    <circle cx="472.708" cy="538.29" r="3.523" style="fill:white;fill-opacity:0.2;"/>
                </g>
            </g>
            <g transform="matrix(1.12728,0.24317,-0.314186,0.872483,-83.823,-556.327)">
                <g>
                    <circle cx="472.708" cy="538.29" r="3.523" style="fill:white;fill-opacity:0.2;"/>
                </g>
            </g>
            <g transform="matrix(4.53517,0.978299,-1.10505,3.06868,-126.363,103.149)">
                <g transform="matrix(0.248565,0,0,0.284319,-41.9894,-37.8131)">
                    <circle cx="472.708" cy="538.29" r="3.523" style="fill:white;fill-opacity:0.2;"/>
                </g>
                <g transform="matrix(0.248565,0,0,0.284319,-73.5949,-83.2806)">
                    <circle cx="472.708" cy="538.29" r="3.523" style="fill:white;fill-opacity:0.2;"/>
                </g>
                <g transform="matrix(0.248565,0,0,0.284319,-38.0372,-79.4903)">
                    <circle cx="472.708" cy="538.29" r="3.523" style="fill:white;fill-opacity:0.2;"/>
                </g>
            </g>
            <g transform="matrix(4.53517,0.978299,-1.10505,3.06868,532.153,259.164)">
                <g transform="matrix(0.248565,0,0,0.284319,-78.4929,-39.387)">
                    <circle cx="472.708" cy="538.29" r="3.523" style="fill:white;fill-opacity:0.2;"/>
                </g>
                <g transform="matrix(0.248565,0,0,0.284319,-41.9894,-37.8131)">
                    <circle cx="472.708" cy="538.29" r="3.523" style="fill:white;fill-opacity:0.2;"/>
                </g>
                <g transform="matrix(0.248565,0,0,0.284319,-73.5949,-83.2806)">
                    <circle cx="472.708" cy="538.29" r="3.523" style="fill:white;fill-opacity:0.2;"/>
                </g>
                <g transform="matrix(0.248565,0,0,0.284319,-38.0372,-79.4903)">
                    <circle cx="472.708" cy="538.29" r="3.523" style="fill:white;fill-opacity:0.2;"/>
                </g>
            </g>
            <g transform="matrix(4.53517,0.978299,-1.10505,3.06868,946.579,101.232)">
                <g transform="matrix(0.248565,0,0,0.284319,-78.4929,-39.387)">
                    <circle cx="472.708" cy="538.29" r="3.523" style="fill:white;fill-opacity:0.2;"/>
                </g>
                <g transform="matrix(0.248565,0,0,0.284319,-74.4164,-83.1946)">
                    <circle cx="472.708" cy="538.29" r="3.523" style="fill:white;fill-opacity:0.2;"/>
                </g>
            </g>
            <g transform="matrix(4.53517,0.978299,-1.10505,3.06868,719.214,-229.9)">
                <g transform="matrix(0.248565,0,0,0.284319,-78.4929,-39.387)">
                    <circle cx="472.708" cy="538.29" r="3.523" style="fill:white;fill-opacity:0.2;"/>
                </g>
                <g transform="matrix(0.248565,0,0,0.284319,-41.9894,-37.8131)">
                    <circle cx="472.708" cy="538.29" r="3.523" style="fill:white;fill-opacity:0.2;"/>
                </g>
                <g transform="matrix(0.248565,0,0,0.284319,-73.5949,-83.2806)">
                    <circle cx="472.708" cy="538.29" r="3.523" style="fill:white;fill-opacity:0.2;"/>
                </g>
                <g transform="matrix(0.248565,0,0,0.284319,-38.0372,-79.4903)">
                    <circle cx="472.708" cy="538.29" r="3.523" style="fill:white;fill-opacity:0.2;"/>
                </g>
            </g>
            <g transform="matrix(4.70802,0,0,3.18563,505.354,53.6088)">
                <g transform="matrix(0.248565,0,0,0.284319,-78.4929,-39.387)">
                    <circle cx="472.708" cy="538.29" r="3.523" style="fill:white;fill-opacity:0.2;"/>
                </g>
                <g transform="matrix(0.248565,0,0,0.284319,-41.9894,-37.8131)">
                    <circle cx="472.708" cy="538.29" r="3.523" style="fill:white;fill-opacity:0.2;"/>
                </g>
                <g transform="matrix(0.248565,0,0,0.284319,-73.5949,-83.2806)">
                    <circle cx="472.708" cy="538.29" r="3.523" style="fill:white;fill-opacity:0.2;"/>
                </g>
                <g transform="matrix(0.248565,0,0,0.284319,-38.0372,-79.4903)">
                    <circle cx="472.708" cy="538.29" r="3.523" style="fill:white;fill-opacity:0.2;"/>
                </g>
            </g>
            <g transform="matrix(4.70802,0,0,3.18563,271.515,-280.123)">
                <g transform="matrix(0.248565,0,0,0.284319,-78.4929,-39.387)">
                    <circle cx="472.708" cy="538.29" r="3.523" style="fill:white;fill-opacity:0.2;"/>
                </g>
                <g transform="matrix(0.248565,0,0,0.284319,-41.9894,-37.8131)">
                    <circle cx="472.708" cy="538.29" r="3.523" style="fill:white;fill-opacity:0.2;"/>
                </g>
            </g>
            <g transform="matrix(4.70802,0,0,3.18563,75.8159,231.525)">
                <g transform="matrix(0.248565,0,0,0.284319,-78.4929,-39.387)">
                    <circle cx="472.708" cy="538.29" r="3.523" style="fill:white;fill-opacity:0.2;"/>
                </g>
                <g transform="matrix(0.248565,0,0,0.284319,-41.9894,-37.8131)">
                    <circle cx="472.708" cy="538.29" r="3.523" style="fill:white;fill-opacity:0.2;"/>
                </g>
                <g transform="matrix(0.248565,0,0,0.284319,-73.5949,-83.2806)">
                    <circle cx="472.708" cy="538.29" r="3.523" style="fill:white;fill-opacity:0.2;"/>
                </g>
                <g transform="matrix(0.248565,0,0,0.284319,-38.0372,-79.4903)">
                    <circle cx="472.708" cy="538.29" r="3.523" style="fill:white;fill-opacity:0.2;"/>
                </g>
            </g>
            <g transform="matrix(1.17025,0,0,0.905736,347.187,257.888)">
                <circle cx="472.708" cy="538.29" r="3.523" style="fill:white;fill-opacity:0.2;"/>
            </g>
            <g transform="matrix(1.17025,0,0,0.905736,370.247,118.059)">
                <circle cx="472.708" cy="538.29" r="3.523" style="fill:white;fill-opacity:0.2;"/>
            </g>
            <g transform="matrix(4.70802,0,0,3.18563,296.916,550.867)">
                <g transform="matrix(0.248565,0,0,0.284319,-73.5949,-83.2806)">
                    <circle cx="472.708" cy="538.29" r="3.523" style="fill:white;fill-opacity:0.2;"/>
                </g>
                <g transform="matrix(0.248565,0,0,0.284319,-38.0372,-79.4903)">
                    <circle cx="472.708" cy="538.29" r="3.523" style="fill:white;fill-opacity:0.2;"/>
                </g>
            </g>
            <g transform="matrix(4.70802,0,0,3.18563,-192.79,438.602)">
                <g transform="matrix(0.248565,0,0,0.284319,-41.9894,-37.8131)">
                    <circle cx="472.708" cy="538.29" r="3.523" style="fill:white;fill-opacity:0.2;"/>
                </g>
                <g transform="matrix(0.248565,0,0,0.284319,-73.5949,-83.2806)">
                    <circle cx="472.708" cy="538.29" r="3.523" style="fill:white;fill-opacity:0.2;"/>
                </g>
                <g transform="matrix(0.248565,0,0,0.284319,-38.0372,-79.4903)">
                    <circle cx="472.708" cy="538.29" r="3.523" style="fill:white;fill-opacity:0.2;"/>
                </g>
            </g>
            <g transform="matrix(0.817926,0.381069,-0.492357,0.63305,298.636,439.456)">
                <circle cx="181.932" cy="406.425" r="7.858" style="fill:none;stroke:white;stroke-opacity:0.2;stroke-width:3.74px;"/>
            </g>
            <g transform="matrix(0.817926,0.381069,-0.492357,0.63305,725.702,275.345)">
                <circle cx="181.932" cy="406.425" r="7.858" style="fill:none;stroke:white;stroke-opacity:0.2;stroke-width:3.74px;"/>
            </g>
            <g transform="matrix(0.817926,0.381069,-0.492357,0.63305,1046.52,357.514)">
                <circle cx="181.932" cy="406.425" r="7.858" style="fill:none;stroke:white;stroke-opacity:0.2;stroke-width:3.74px;"/>
            </g>
            <g transform="matrix(0.959146,-0.41071,0.530653,0.74235,124.457,128.583)">
                <g transform="matrix(2.18548,0,0,2.18548,216.317,83.9121)">
                    <path d="M0,-5.16C-0.002,-7.177 -1.64,-8.811 -3.665,-8.809C-5.681,-8.807 -7.313,-7.17 -7.311,-5.153C-7.313,-7.17 -8.949,-8.804 -10.971,-8.802C-12.995,-8.8 -14.628,-7.163 -14.625,-5.145C-14.625,-4.03 -14.117,-3.051 -13.34,-2.383L-7.291,3.651L-1.152,-2.498C-0.445,-3.164 0,-4.107 0,-5.16" style="fill:white;fill-opacity:0.2;fill-rule:nonzero;"/>
                </g>
                <g transform="matrix(2.18548,0,0,2.18548,216.84,58.8265)">
                    <path d="M0,13.39C-0.159,13.39 -0.32,13.33 -0.442,13.205C-0.687,12.964 -0.687,12.566 -0.444,12.324C1.049,10.826 1.87,8.836 1.867,6.724C1.866,4.61 1.04,2.624 -0.458,1.127C-0.702,0.884 -0.702,0.488 -0.458,0.243C-0.214,0 0.185,0 0.427,0.243C2.16,1.975 3.114,4.277 3.12,6.724C3.12,9.17 2.169,11.474 0.443,13.207C0.324,13.328 0.16,13.39 0,13.39" style="fill:white;fill-opacity:0.2;fill-rule:nonzero;"/>
                </g>
                <g transform="matrix(2.18548,0,0,2.18548,220.976,54.6844)">
                    <path d="M0,17.174C-0.159,17.174 -0.318,17.112 -0.439,16.993C-0.685,16.747 -0.685,16.351 -0.443,16.11C1.556,14.103 2.656,11.443 2.654,8.614C2.649,5.786 1.545,3.124 -0.459,1.13C-0.702,0.886 -0.702,0.488 -0.459,0.245C-0.216,0.001 0.181,0 0.426,0.243C2.667,2.477 3.899,5.448 3.904,8.614C3.907,11.776 2.679,14.753 0.444,16.993C0.322,17.112 0.163,17.174 0,17.174" style="fill:white;fill-opacity:0.2;fill-rule:nonzero;"/>
                </g>
                <g transform="matrix(2.18548,0,0,2.18548,183.864,58.8444)">
                    <path d="M0,13.397C-0.159,13.397 -0.319,13.336 -0.442,13.215C-2.177,11.486 -3.134,9.185 -3.135,6.736C-3.139,4.289 -2.186,1.985 -0.456,0.246C-0.214,0 0.183,0 0.428,0.243C0.674,0.49 0.675,0.886 0.43,1.13C-1.065,2.631 -1.888,4.622 -1.885,6.736C-1.885,8.85 -1.056,10.837 0.44,12.329C0.686,12.575 0.687,12.971 0.442,13.214C0.321,13.336 0.162,13.397 0,13.397" style="fill:white;fill-opacity:0.2;fill-rule:nonzero;"/>
                </g>
                <g transform="matrix(2.18548,0,0,2.18548,179.728,54.7281)">
                    <path d="M0,17.175C-0.159,17.175 -0.319,17.115 -0.443,16.995C-2.68,14.76 -3.914,11.787 -3.917,8.624C-3.919,5.456 -2.69,2.482 -0.457,0.243C-0.213,0 0.184,0 0.427,0.243C0.671,0.489 0.671,0.884 0.427,1.13C-1.569,3.128 -2.669,5.789 -2.665,8.621C-2.662,11.449 -1.56,14.111 0.441,16.107C0.685,16.351 0.687,16.749 0.441,16.994C0.319,17.115 0.16,17.175 0,17.175" style="fill:white;fill-opacity:0.2;fill-rule:nonzero;"/>
                </g>
            </g>
            <g transform="matrix(0.959146,-0.41071,0.530653,0.74235,335.69,459.765)">
                <g transform="matrix(2.18548,0,0,2.18548,216.317,83.9121)">
                    <path d="M0,-5.16C-0.002,-7.177 -1.64,-8.811 -3.665,-8.809C-5.681,-8.807 -7.313,-7.17 -7.311,-5.153C-7.313,-7.17 -8.949,-8.804 -10.971,-8.802C-12.995,-8.8 -14.628,-7.163 -14.625,-5.145C-14.625,-4.03 -14.117,-3.051 -13.34,-2.383L-7.291,3.651L-1.152,-2.498C-0.445,-3.164 0,-4.107 0,-5.16" style="fill:white;fill-opacity:0.2;fill-rule:nonzero;"/>
                </g>
                <g transform="matrix(2.18548,0,0,2.18548,216.84,58.8265)">
                    <path d="M0,13.39C-0.159,13.39 -0.32,13.33 -0.442,13.205C-0.687,12.964 -0.687,12.566 -0.444,12.324C1.049,10.826 1.87,8.836 1.867,6.724C1.866,4.61 1.04,2.624 -0.458,1.127C-0.702,0.884 -0.702,0.488 -0.458,0.243C-0.214,0 0.185,0 0.427,0.243C2.16,1.975 3.114,4.277 3.12,6.724C3.12,9.17 2.169,11.474 0.443,13.207C0.324,13.328 0.16,13.39 0,13.39" style="fill:white;fill-opacity:0.2;fill-rule:nonzero;"/>
                </g>
                <g transform="matrix(2.18548,0,0,2.18548,220.976,54.6844)">
                    <path d="M0,17.174C-0.159,17.174 -0.318,17.112 -0.439,16.993C-0.685,16.747 -0.685,16.351 -0.443,16.11C1.556,14.103 2.656,11.443 2.654,8.614C2.649,5.786 1.545,3.124 -0.459,1.13C-0.702,0.886 -0.702,0.488 -0.459,0.245C-0.216,0.001 0.181,0 0.426,0.243C2.667,2.477 3.899,5.448 3.904,8.614C3.907,11.776 2.679,14.753 0.444,16.993C0.322,17.112 0.163,17.174 0,17.174" style="fill:white;fill-opacity:0.2;fill-rule:nonzero;"/>
                </g>
                <g transform="matrix(2.18548,0,0,2.18548,183.864,58.8444)">
                    <path d="M0,13.397C-0.159,13.397 -0.319,13.336 -0.442,13.215C-2.177,11.486 -3.134,9.185 -3.135,6.736C-3.139,4.289 -2.186,1.985 -0.456,0.246C-0.214,0 0.183,0 0.428,0.243C0.674,0.49 0.675,0.886 0.43,1.13C-1.065,2.631 -1.888,4.622 -1.885,6.736C-1.885,8.85 -1.056,10.837 0.44,12.329C0.686,12.575 0.687,12.971 0.442,13.214C0.321,13.336 0.162,13.397 0,13.397" style="fill:white;fill-opacity:0.2;fill-rule:nonzero;"/>
                </g>
                <g transform="matrix(2.18548,0,0,2.18548,179.728,54.7281)">
                    <path d="M0,17.175C-0.159,17.175 -0.319,17.115 -0.443,16.995C-2.68,14.76 -3.914,11.787 -3.917,8.624C-3.919,5.456 -2.69,2.482 -0.457,0.243C-0.213,0 0.184,0 0.427,0.243C0.671,0.489 0.671,0.884 0.427,1.13C-1.569,3.128 -2.669,5.789 -2.665,8.621C-2.662,11.449 -1.56,14.111 0.441,16.107C0.685,16.351 0.687,16.749 0.441,16.994C0.319,17.115 0.16,17.175 0,17.175" style="fill:white;fill-opacity:0.2;fill-rule:nonzero;"/>
                </g>
            </g>
            <g transform="matrix(0.959146,-0.41071,0.530653,0.74235,763.648,296.375)">
                <g transform="matrix(2.18548,0,0,2.18548,216.317,83.9121)">
                    <path d="M0,-5.16C-0.002,-7.177 -1.64,-8.811 -3.665,-8.809C-5.681,-8.807 -7.313,-7.17 -7.311,-5.153C-7.313,-7.17 -8.949,-8.804 -10.971,-8.802C-12.995,-8.8 -14.628,-7.163 -14.625,-5.145C-14.625,-4.03 -14.117,-3.051 -13.34,-2.383L-7.291,3.651L-1.152,-2.498C-0.445,-3.164 0,-4.107 0,-5.16" style="fill:white;fill-opacity:0.2;fill-rule:nonzero;"/>
                </g>
                <g transform="matrix(2.18548,0,0,2.18548,216.84,58.8265)">
                    <path d="M0,13.39C-0.159,13.39 -0.32,13.33 -0.442,13.205C-0.687,12.964 -0.687,12.566 -0.444,12.324C1.049,10.826 1.87,8.836 1.867,6.724C1.866,4.61 1.04,2.624 -0.458,1.127C-0.702,0.884 -0.702,0.488 -0.458,0.243C-0.214,0 0.185,0 0.427,0.243C2.16,1.975 3.114,4.277 3.12,6.724C3.12,9.17 2.169,11.474 0.443,13.207C0.324,13.328 0.16,13.39 0,13.39" style="fill:white;fill-opacity:0.2;fill-rule:nonzero;"/>
                </g>
                <g transform="matrix(2.18548,0,0,2.18548,220.976,54.6844)">
                    <path d="M0,17.174C-0.159,17.174 -0.318,17.112 -0.439,16.993C-0.685,16.747 -0.685,16.351 -0.443,16.11C1.556,14.103 2.656,11.443 2.654,8.614C2.649,5.786 1.545,3.124 -0.459,1.13C-0.702,0.886 -0.702,0.488 -0.459,0.245C-0.216,0.001 0.181,0 0.426,0.243C2.667,2.477 3.899,5.448 3.904,8.614C3.907,11.776 2.679,14.753 0.444,16.993C0.322,17.112 0.163,17.174 0,17.174" style="fill:white;fill-opacity:0.2;fill-rule:nonzero;"/>
                </g>
                <g transform="matrix(2.18548,0,0,2.18548,183.864,58.8444)">
                    <path d="M0,13.397C-0.159,13.397 -0.319,13.336 -0.442,13.215C-2.177,11.486 -3.134,9.185 -3.135,6.736C-3.139,4.289 -2.186,1.985 -0.456,0.246C-0.214,0 0.183,0 0.428,0.243C0.674,0.49 0.675,0.886 0.43,1.13C-1.065,2.631 -1.888,4.622 -1.885,6.736C-1.885,8.85 -1.056,10.837 0.44,12.329C0.686,12.575 0.687,12.971 0.442,13.214C0.321,13.336 0.162,13.397 0,13.397" style="fill:white;fill-opacity:0.2;fill-rule:nonzero;"/>
                </g>
                <g transform="matrix(2.18548,0,0,2.18548,179.728,54.7281)">
                    <path d="M0,17.175C-0.159,17.175 -0.319,17.115 -0.443,16.995C-2.68,14.76 -3.914,11.787 -3.917,8.624C-3.919,5.456 -2.69,2.482 -0.457,0.243C-0.213,0 0.184,0 0.427,0.243C0.671,0.489 0.671,0.884 0.427,1.13C-1.569,3.128 -2.669,5.789 -2.665,8.621C-2.662,11.449 -1.56,14.111 0.441,16.107C0.685,16.351 0.687,16.749 0.441,16.994C0.319,17.115 0.16,17.175 0,17.175" style="fill:white;fill-opacity:0.2;fill-rule:nonzero;"/>
                </g>
            </g>
            <g transform="matrix(0.959146,-0.41071,0.530653,0.74235,-91.9679,627.082)">
                <g transform="matrix(2.18548,0,0,2.18548,216.317,83.9121)">
                    <path d="M0,-5.16C-0.002,-7.177 -1.64,-8.811 -3.665,-8.809C-5.681,-8.807 -7.313,-7.17 -7.311,-5.153C-7.313,-7.17 -8.949,-8.804 -10.971,-8.802C-12.995,-8.8 -14.628,-7.163 -14.625,-5.145C-14.625,-4.03 -14.117,-3.051 -13.34,-2.383L-7.291,3.651L-1.152,-2.498C-0.445,-3.164 0,-4.107 0,-5.16" style="fill:white;fill-opacity:0.2;fill-rule:nonzero;"/>
                </g>
                <g transform="matrix(2.18548,0,0,2.18548,216.84,58.8265)">
                    <path d="M0,13.39C-0.159,13.39 -0.32,13.33 -0.442,13.205C-0.687,12.964 -0.687,12.566 -0.444,12.324C1.049,10.826 1.87,8.836 1.867,6.724C1.866,4.61 1.04,2.624 -0.458,1.127C-0.702,0.884 -0.702,0.488 -0.458,0.243C-0.214,0 0.185,0 0.427,0.243C2.16,1.975 3.114,4.277 3.12,6.724C3.12,9.17 2.169,11.474 0.443,13.207C0.324,13.328 0.16,13.39 0,13.39" style="fill:white;fill-opacity:0.2;fill-rule:nonzero;"/>
                </g>
                <g transform="matrix(2.18548,0,0,2.18548,220.976,54.6844)">
                    <path d="M0,17.174C-0.159,17.174 -0.318,17.112 -0.439,16.993C-0.685,16.747 -0.685,16.351 -0.443,16.11C1.556,14.103 2.656,11.443 2.654,8.614C2.649,5.786 1.545,3.124 -0.459,1.13C-0.702,0.886 -0.702,0.488 -0.459,0.245C-0.216,0.001 0.181,0 0.426,0.243C2.667,2.477 3.899,5.448 3.904,8.614C3.907,11.776 2.679,14.753 0.444,16.993C0.322,17.112 0.163,17.174 0,17.174" style="fill:white;fill-opacity:0.2;fill-rule:nonzero;"/>
                </g>
                <g transform="matrix(2.18548,0,0,2.18548,183.864,58.8444)">
                    <path d="M0,13.397C-0.159,13.397 -0.319,13.336 -0.442,13.215C-2.177,11.486 -3.134,9.185 -3.135,6.736C-3.139,4.289 -2.186,1.985 -0.456,0.246C-0.214,0 0.183,0 0.428,0.243C0.674,0.49 0.675,0.886 0.43,1.13C-1.065,2.631 -1.888,4.622 -1.885,6.736C-1.885,8.85 -1.056,10.837 0.44,12.329C0.686,12.575 0.687,12.971 0.442,13.214C0.321,13.336 0.162,13.397 0,13.397" style="fill:white;fill-opacity:0.2;fill-rule:nonzero;"/>
                </g>
                <g transform="matrix(2.18548,0,0,2.18548,179.728,54.7281)">
                    <path d="M0,17.175C-0.159,17.175 -0.319,17.115 -0.443,16.995C-2.68,14.76 -3.914,11.787 -3.917,8.624C-3.919,5.456 -2.69,2.482 -0.457,0.243C-0.213,0 0.184,0 0.427,0.243C0.671,0.489 0.671,0.884 0.427,1.13C-1.569,3.128 -2.669,5.789 -2.665,8.621C-2.662,11.449 -1.56,14.111 0.441,16.107C0.685,16.351 0.687,16.749 0.441,16.994C0.319,17.115 0.16,17.175 0,17.175" style="fill:white;fill-opacity:0.2;fill-rule:nonzero;"/>
                </g>
            </g>
            <g transform="matrix(0.959146,-0.41071,0.530653,0.74235,549.858,793.616)">
                <g transform="matrix(2.18548,0,0,2.18548,216.317,83.9121)">
                    <path d="M0,-5.16C-0.002,-7.177 -1.64,-8.811 -3.665,-8.809C-5.681,-8.807 -7.313,-7.17 -7.311,-5.153C-7.313,-7.17 -8.949,-8.804 -10.971,-8.802C-12.995,-8.8 -14.628,-7.163 -14.625,-5.145C-14.625,-4.03 -14.117,-3.051 -13.34,-2.383L-7.291,3.651L-1.152,-2.498C-0.445,-3.164 0,-4.107 0,-5.16" style="fill:white;fill-opacity:0.2;fill-rule:nonzero;"/>
                </g>
                <g transform="matrix(2.18548,0,0,2.18548,216.84,58.8265)">
                    <path d="M0,13.39C-0.159,13.39 -0.32,13.33 -0.442,13.205C-0.687,12.964 -0.687,12.566 -0.444,12.324C1.049,10.826 1.87,8.836 1.867,6.724C1.866,4.61 1.04,2.624 -0.458,1.127C-0.702,0.884 -0.702,0.488 -0.458,0.243C-0.214,0 0.185,0 0.427,0.243C2.16,1.975 3.114,4.277 3.12,6.724C3.12,9.17 2.169,11.474 0.443,13.207C0.324,13.328 0.16,13.39 0,13.39" style="fill:white;fill-opacity:0.2;fill-rule:nonzero;"/>
                </g>
                <g transform="matrix(2.18548,0,0,2.18548,220.976,54.6844)">
                    <path d="M0,17.174C-0.159,17.174 -0.318,17.112 -0.439,16.993C-0.685,16.747 -0.685,16.351 -0.443,16.11C1.556,14.103 2.656,11.443 2.654,8.614C2.649,5.786 1.545,3.124 -0.459,1.13C-0.702,0.886 -0.702,0.488 -0.459,0.245C-0.216,0.001 0.181,0 0.426,0.243C2.667,2.477 3.899,5.448 3.904,8.614C3.907,11.776 2.679,14.753 0.444,16.993C0.322,17.112 0.163,17.174 0,17.174" style="fill:white;fill-opacity:0.2;fill-rule:nonzero;"/>
                </g>
                <g transform="matrix(2.18548,0,0,2.18548,183.864,58.8444)">
                    <path d="M0,13.397C-0.159,13.397 -0.319,13.336 -0.442,13.215C-2.177,11.486 -3.134,9.185 -3.135,6.736C-3.139,4.289 -2.186,1.985 -0.456,0.246C-0.214,0 0.183,0 0.428,0.243C0.674,0.49 0.675,0.886 0.43,1.13C-1.065,2.631 -1.888,4.622 -1.885,6.736C-1.885,8.85 -1.056,10.837 0.44,12.329C0.686,12.575 0.687,12.971 0.442,13.214C0.321,13.336 0.162,13.397 0,13.397" style="fill:white;fill-opacity:0.2;fill-rule:nonzero;"/>
                </g>
                <g transform="matrix(2.18548,0,0,2.18548,179.728,54.7281)">
                    <path d="M0,17.175C-0.159,17.175 -0.319,17.115 -0.443,16.995C-2.68,14.76 -3.914,11.787 -3.917,8.624C-3.919,5.456 -2.69,2.482 -0.457,0.243C-0.213,0 0.184,0 0.427,0.243C0.671,0.489 0.671,0.884 0.427,1.13C-1.569,3.128 -2.669,5.789 -2.665,8.621C-2.662,11.449 -1.56,14.111 0.441,16.107C0.685,16.351 0.687,16.749 0.441,16.994C0.319,17.115 0.16,17.175 0,17.175" style="fill:white;fill-opacity:0.2;fill-rule:nonzero;"/>
                </g>
            </g>
            <g transform="matrix(-0.959146,-0.41071,-0.530653,0.74235,268.282,45.3469)">
                <g transform="matrix(2.18548,0,0,2.18548,216.317,83.9121)">
                    <path d="M0,-5.16C-0.002,-7.177 -1.64,-8.811 -3.665,-8.809C-5.681,-8.807 -7.313,-7.17 -7.311,-5.153C-7.313,-7.17 -8.949,-8.804 -10.971,-8.802C-12.995,-8.8 -14.628,-7.163 -14.625,-5.145C-14.625,-4.03 -14.117,-3.051 -13.34,-2.383L-7.291,3.651L-1.152,-2.498C-0.445,-3.164 0,-4.107 0,-5.16" style="fill:white;fill-opacity:0.2;fill-rule:nonzero;"/>
                </g>
                <g transform="matrix(2.18548,0,0,2.18548,216.84,58.8265)">
                    <path d="M0,13.39C-0.159,13.39 -0.32,13.33 -0.442,13.205C-0.687,12.964 -0.687,12.566 -0.444,12.324C1.049,10.826 1.87,8.836 1.867,6.724C1.866,4.61 1.04,2.624 -0.458,1.127C-0.702,0.884 -0.702,0.488 -0.458,0.243C-0.214,0 0.185,0 0.427,0.243C2.16,1.975 3.114,4.277 3.12,6.724C3.12,9.17 2.169,11.474 0.443,13.207C0.324,13.328 0.16,13.39 0,13.39" style="fill:white;fill-opacity:0.2;fill-rule:nonzero;"/>
                </g>
                <g transform="matrix(2.18548,0,0,2.18548,220.976,54.6844)">
                    <path d="M0,17.174C-0.159,17.174 -0.318,17.112 -0.439,16.993C-0.685,16.747 -0.685,16.351 -0.443,16.11C1.556,14.103 2.656,11.443 2.654,8.614C2.649,5.786 1.545,3.124 -0.459,1.13C-0.702,0.886 -0.702,0.488 -0.459,0.245C-0.216,0.001 0.181,0 0.426,0.243C2.667,2.477 3.899,5.448 3.904,8.614C3.907,11.776 2.679,14.753 0.444,16.993C0.322,17.112 0.163,17.174 0,17.174" style="fill:white;fill-opacity:0.2;fill-rule:nonzero;"/>
                </g>
                <g transform="matrix(2.18548,0,0,2.18548,183.864,58.8444)">
                    <path d="M0,13.397C-0.159,13.397 -0.319,13.336 -0.442,13.215C-2.177,11.486 -3.134,9.185 -3.135,6.736C-3.139,4.289 -2.186,1.985 -0.456,0.246C-0.214,0 0.183,0 0.428,0.243C0.674,0.49 0.675,0.886 0.43,1.13C-1.065,2.631 -1.888,4.622 -1.885,6.736C-1.885,8.85 -1.056,10.837 0.44,12.329C0.686,12.575 0.687,12.971 0.442,13.214C0.321,13.336 0.162,13.397 0,13.397" style="fill:white;fill-opacity:0.2;fill-rule:nonzero;"/>
                </g>
                <g transform="matrix(2.18548,0,0,2.18548,179.728,54.7281)">
                    <path d="M0,17.175C-0.159,17.175 -0.319,17.115 -0.443,16.995C-2.68,14.76 -3.914,11.787 -3.917,8.624C-3.919,5.456 -2.69,2.482 -0.457,0.243C-0.213,0 0.184,0 0.427,0.243C0.671,0.489 0.671,0.884 0.427,1.13C-1.569,3.128 -2.669,5.789 -2.665,8.621C-2.662,11.449 -1.56,14.111 0.441,16.107C0.685,16.351 0.687,16.749 0.441,16.994C0.319,17.115 0.16,17.175 0,17.175" style="fill:white;fill-opacity:0.2;fill-rule:nonzero;"/>
                </g>
            </g>
            <g transform="matrix(-0.959146,-0.41071,-0.530653,0.74235,268.282,874.047)">
                <g transform="matrix(2.18548,0,0,2.18548,216.84,58.8265)">
                    <path d="M0,13.39C-0.159,13.39 -0.32,13.33 -0.442,13.205C-0.687,12.964 -0.687,12.566 -0.444,12.324C1.049,10.826 1.87,8.836 1.867,6.724C1.866,4.61 1.04,2.624 -0.458,1.127C-0.702,0.884 -0.702,0.488 -0.458,0.243C-0.214,0 0.185,0 0.427,0.243C2.16,1.975 3.114,4.277 3.12,6.724C3.12,9.17 2.169,11.474 0.443,13.207C0.324,13.328 0.16,13.39 0,13.39" style="fill:white;fill-opacity:0.2;fill-rule:nonzero;"/>
                </g>
                <g transform="matrix(2.18548,0,0,2.18548,220.976,54.6844)">
                    <path d="M0,17.174C-0.159,17.174 -0.318,17.112 -0.439,16.993C-0.685,16.747 -0.685,16.351 -0.443,16.11C1.556,14.103 2.656,11.443 2.654,8.614C2.649,5.786 1.545,3.124 -0.459,1.13C-0.702,0.886 -0.702,0.488 -0.459,0.245C-0.216,0.001 0.181,0 0.426,0.243C2.667,2.477 3.899,5.448 3.904,8.614C3.907,11.776 2.679,14.753 0.444,16.993C0.322,17.112 0.163,17.174 0,17.174" style="fill:white;fill-opacity:0.2;fill-rule:nonzero;"/>
                </g>
            </g>
            <g transform="matrix(-0.959146,-0.41071,-0.530653,0.74235,906.993,212.511)">
                <g transform="matrix(2.18548,0,0,2.18548,216.317,83.9121)">
                    <path d="M0,-5.16C-0.002,-7.177 -1.64,-8.811 -3.665,-8.809C-5.681,-8.807 -7.313,-7.17 -7.311,-5.153C-7.313,-7.17 -8.949,-8.804 -10.971,-8.802C-12.995,-8.8 -14.628,-7.163 -14.625,-5.145C-14.625,-4.03 -14.117,-3.051 -13.34,-2.383L-7.291,3.651L-1.152,-2.498C-0.445,-3.164 0,-4.107 0,-5.16" style="fill:white;fill-opacity:0.2;fill-rule:nonzero;"/>
                </g>
                <g transform="matrix(2.18548,0,0,2.18548,216.84,58.8265)">
                    <path d="M0,13.39C-0.159,13.39 -0.32,13.33 -0.442,13.205C-0.687,12.964 -0.687,12.566 -0.444,12.324C1.049,10.826 1.87,8.836 1.867,6.724C1.866,4.61 1.04,2.624 -0.458,1.127C-0.702,0.884 -0.702,0.488 -0.458,0.243C-0.214,0 0.185,0 0.427,0.243C2.16,1.975 3.114,4.277 3.12,6.724C3.12,9.17 2.169,11.474 0.443,13.207C0.324,13.328 0.16,13.39 0,13.39" style="fill:white;fill-opacity:0.2;fill-rule:nonzero;"/>
                </g>
                <g transform="matrix(2.18548,0,0,2.18548,220.976,54.6844)">
                    <path d="M0,17.174C-0.159,17.174 -0.318,17.112 -0.439,16.993C-0.685,16.747 -0.685,16.351 -0.443,16.11C1.556,14.103 2.656,11.443 2.654,8.614C2.649,5.786 1.545,3.124 -0.459,1.13C-0.702,0.886 -0.702,0.488 -0.459,0.245C-0.216,0.001 0.181,0 0.426,0.243C2.667,2.477 3.899,5.448 3.904,8.614C3.907,11.776 2.679,14.753 0.444,16.993C0.322,17.112 0.163,17.174 0,17.174" style="fill:white;fill-opacity:0.2;fill-rule:nonzero;"/>
                </g>
                <g transform="matrix(2.18548,0,0,2.18548,183.864,58.8444)">
                    <path d="M0,13.397C-0.159,13.397 -0.319,13.336 -0.442,13.215C-2.177,11.486 -3.134,9.185 -3.135,6.736C-3.139,4.289 -2.186,1.985 -0.456,0.246C-0.214,0 0.183,0 0.428,0.243C0.674,0.49 0.675,0.886 0.43,1.13C-1.065,2.631 -1.888,4.622 -1.885,6.736C-1.885,8.85 -1.056,10.837 0.44,12.329C0.686,12.575 0.687,12.971 0.442,13.214C0.321,13.336 0.162,13.397 0,13.397" style="fill:white;fill-opacity:0.2;fill-rule:nonzero;"/>
                </g>
                <g transform="matrix(2.18548,0,0,2.18548,179.728,54.7281)">
                    <path d="M0,17.175C-0.159,17.175 -0.319,17.115 -0.443,16.995C-2.68,14.76 -3.914,11.787 -3.917,8.624C-3.919,5.456 -2.69,2.482 -0.457,0.243C-0.213,0 0.184,0 0.427,0.243C0.671,0.489 0.671,0.884 0.427,1.13C-1.569,3.128 -2.669,5.789 -2.665,8.621C-2.662,11.449 -1.56,14.111 0.441,16.107C0.685,16.351 0.687,16.749 0.441,16.994C0.319,17.115 0.16,17.175 0,17.175" style="fill:white;fill-opacity:0.2;fill-rule:nonzero;"/>
                </g>
            </g>
            <g transform="matrix(-0.959146,-0.41071,-0.530653,0.74235,692.785,709.406)">
                <g transform="matrix(2.18548,0,0,2.18548,216.317,83.9121)">
                    <path d="M0,-5.16C-0.002,-7.177 -1.64,-8.811 -3.665,-8.809C-5.681,-8.807 -7.313,-7.17 -7.311,-5.153C-7.313,-7.17 -8.949,-8.804 -10.971,-8.802C-12.995,-8.8 -14.628,-7.163 -14.625,-5.145C-14.625,-4.03 -14.117,-3.051 -13.34,-2.383L-7.291,3.651L-1.152,-2.498C-0.445,-3.164 0,-4.107 0,-5.16" style="fill:white;fill-opacity:0.2;fill-rule:nonzero;"/>
                </g>
                <g transform="matrix(2.18548,0,0,2.18548,216.84,58.8265)">
                    <path d="M0,13.39C-0.159,13.39 -0.32,13.33 -0.442,13.205C-0.687,12.964 -0.687,12.566 -0.444,12.324C1.049,10.826 1.87,8.836 1.867,6.724C1.866,4.61 1.04,2.624 -0.458,1.127C-0.702,0.884 -0.702,0.488 -0.458,0.243C-0.214,0 0.185,0 0.427,0.243C2.16,1.975 3.114,4.277 3.12,6.724C3.12,9.17 2.169,11.474 0.443,13.207C0.324,13.328 0.16,13.39 0,13.39" style="fill:white;fill-opacity:0.2;fill-rule:nonzero;"/>
                </g>
                <g transform="matrix(2.18548,0,0,2.18548,220.976,54.6844)">
                    <path d="M0,17.174C-0.159,17.174 -0.318,17.112 -0.439,16.993C-0.685,16.747 -0.685,16.351 -0.443,16.11C1.556,14.103 2.656,11.443 2.654,8.614C2.649,5.786 1.545,3.124 -0.459,1.13C-0.702,0.886 -0.702,0.488 -0.459,0.245C-0.216,0.001 0.181,0 0.426,0.243C2.667,2.477 3.899,5.448 3.904,8.614C3.907,11.776 2.679,14.753 0.444,16.993C0.322,17.112 0.163,17.174 0,17.174" style="fill:white;fill-opacity:0.2;fill-rule:nonzero;"/>
                </g>
                <g transform="matrix(2.18548,0,0,2.18548,183.864,58.8444)">
                    <path d="M0,13.397C-0.159,13.397 -0.319,13.336 -0.442,13.215C-2.177,11.486 -3.134,9.185 -3.135,6.736C-3.139,4.289 -2.186,1.985 -0.456,0.246C-0.214,0 0.183,0 0.428,0.243C0.674,0.49 0.675,0.886 0.43,1.13C-1.065,2.631 -1.888,4.622 -1.885,6.736C-1.885,8.85 -1.056,10.837 0.44,12.329C0.686,12.575 0.687,12.971 0.442,13.214C0.321,13.336 0.162,13.397 0,13.397" style="fill:white;fill-opacity:0.2;fill-rule:nonzero;"/>
                </g>
                <g transform="matrix(2.18548,0,0,2.18548,179.728,54.7281)">
                    <path d="M0,17.175C-0.159,17.175 -0.319,17.115 -0.443,16.995C-2.68,14.76 -3.914,11.787 -3.917,8.624C-3.919,5.456 -2.69,2.482 -0.457,0.243C-0.213,0 0.184,0 0.427,0.243C0.671,0.489 0.671,0.884 0.427,1.13C-1.569,3.128 -2.669,5.789 -2.665,8.621C-2.662,11.449 -1.56,14.111 0.441,16.107C0.685,16.351 0.687,16.749 0.441,16.994C0.319,17.115 0.16,17.175 0,17.175" style="fill:white;fill-opacity:0.2;fill-rule:nonzero;"/>
                </g>
            </g>
            <g transform="matrix(-0.959146,-0.41071,-0.530653,0.74235,480.345,379.433)">
                <g transform="matrix(2.18548,0,0,2.18548,216.317,83.9121)">
                    <path d="M0,-5.16C-0.002,-7.177 -1.64,-8.811 -3.665,-8.809C-5.681,-8.807 -7.313,-7.17 -7.311,-5.153C-7.313,-7.17 -8.949,-8.804 -10.971,-8.802C-12.995,-8.8 -14.628,-7.163 -14.625,-5.145C-14.625,-4.03 -14.117,-3.051 -13.34,-2.383L-7.291,3.651L-1.152,-2.498C-0.445,-3.164 0,-4.107 0,-5.16" style="fill:white;fill-opacity:0.2;fill-rule:nonzero;"/>
                </g>
                <g transform="matrix(2.18548,0,0,2.18548,216.84,58.8265)">
                    <path d="M0,13.39C-0.159,13.39 -0.32,13.33 -0.442,13.205C-0.687,12.964 -0.687,12.566 -0.444,12.324C1.049,10.826 1.87,8.836 1.867,6.724C1.866,4.61 1.04,2.624 -0.458,1.127C-0.702,0.884 -0.702,0.488 -0.458,0.243C-0.214,0 0.185,0 0.427,0.243C2.16,1.975 3.114,4.277 3.12,6.724C3.12,9.17 2.169,11.474 0.443,13.207C0.324,13.328 0.16,13.39 0,13.39" style="fill:white;fill-opacity:0.2;fill-rule:nonzero;"/>
                </g>
                <g transform="matrix(2.18548,0,0,2.18548,220.976,54.6844)">
                    <path d="M0,17.174C-0.159,17.174 -0.318,17.112 -0.439,16.993C-0.685,16.747 -0.685,16.351 -0.443,16.11C1.556,14.103 2.656,11.443 2.654,8.614C2.649,5.786 1.545,3.124 -0.459,1.13C-0.702,0.886 -0.702,0.488 -0.459,0.245C-0.216,0.001 0.181,0 0.426,0.243C2.667,2.477 3.899,5.448 3.904,8.614C3.907,11.776 2.679,14.753 0.444,16.993C0.322,17.112 0.163,17.174 0,17.174" style="fill:white;fill-opacity:0.2;fill-rule:nonzero;"/>
                </g>
                <g transform="matrix(2.18548,0,0,2.18548,183.864,58.8444)">
                    <path d="M0,13.397C-0.159,13.397 -0.319,13.336 -0.442,13.215C-2.177,11.486 -3.134,9.185 -3.135,6.736C-3.139,4.289 -2.186,1.985 -0.456,0.246C-0.214,0 0.183,0 0.428,0.243C0.674,0.49 0.675,0.886 0.43,1.13C-1.065,2.631 -1.888,4.622 -1.885,6.736C-1.885,8.85 -1.056,10.837 0.44,12.329C0.686,12.575 0.687,12.971 0.442,13.214C0.321,13.336 0.162,13.397 0,13.397" style="fill:white;fill-opacity:0.2;fill-rule:nonzero;"/>
                </g>
                <g transform="matrix(2.18548,0,0,2.18548,179.728,54.7281)">
                    <path d="M0,17.175C-0.159,17.175 -0.319,17.115 -0.443,16.995C-2.68,14.76 -3.914,11.787 -3.917,8.624C-3.919,5.456 -2.69,2.482 -0.457,0.243C-0.213,0 0.184,0 0.427,0.243C0.671,0.489 0.671,0.884 0.427,1.13C-1.569,3.128 -2.669,5.789 -2.665,8.621C-2.662,11.449 -1.56,14.111 0.441,16.107C0.685,16.351 0.687,16.749 0.441,16.994C0.319,17.115 0.16,17.175 0,17.175" style="fill:white;fill-opacity:0.2;fill-rule:nonzero;"/>
                </g>
            </g>
            <g transform="matrix(-0.959146,-0.41071,-0.530653,0.74235,1114.5,544.549)">
                <g transform="matrix(2.18548,0,0,2.18548,216.317,83.9121)">
                    <path d="M0,-5.16C-0.002,-7.177 -1.64,-8.811 -3.665,-8.809C-5.681,-8.807 -7.313,-7.17 -7.311,-5.153C-7.313,-7.17 -8.949,-8.804 -10.971,-8.802C-12.995,-8.8 -14.628,-7.163 -14.625,-5.145C-14.625,-4.03 -14.117,-3.051 -13.34,-2.383L-7.291,3.651L-1.152,-2.498C-0.445,-3.164 0,-4.107 0,-5.16" style="fill:white;fill-opacity:0.2;fill-rule:nonzero;"/>
                </g>
                <g transform="matrix(2.18548,0,0,2.18548,216.84,58.8265)">
                    <path d="M0,13.39C-0.159,13.39 -0.32,13.33 -0.442,13.205C-0.687,12.964 -0.687,12.566 -0.444,12.324C1.049,10.826 1.87,8.836 1.867,6.724C1.866,4.61 1.04,2.624 -0.458,1.127C-0.702,0.884 -0.702,0.488 -0.458,0.243C-0.214,0 0.185,0 0.427,0.243C2.16,1.975 3.114,4.277 3.12,6.724C3.12,9.17 2.169,11.474 0.443,13.207C0.324,13.328 0.16,13.39 0,13.39" style="fill:white;fill-opacity:0.2;fill-rule:nonzero;"/>
                </g>
                <g transform="matrix(2.18548,0,0,2.18548,220.976,54.6844)">
                    <path d="M0,17.174C-0.159,17.174 -0.318,17.112 -0.439,16.993C-0.685,16.747 -0.685,16.351 -0.443,16.11C1.556,14.103 2.656,11.443 2.654,8.614C2.649,5.786 1.545,3.124 -0.459,1.13C-0.702,0.886 -0.702,0.488 -0.459,0.245C-0.216,0.001 0.181,0 0.426,0.243C2.667,2.477 3.899,5.448 3.904,8.614C3.907,11.776 2.679,14.753 0.444,16.993C0.322,17.112 0.163,17.174 0,17.174" style="fill:white;fill-opacity:0.2;fill-rule:nonzero;"/>
                </g>
                <g transform="matrix(2.18548,0,0,2.18548,183.864,58.8444)">
                    <path d="M0,13.397C-0.159,13.397 -0.319,13.336 -0.442,13.215C-2.177,11.486 -3.134,9.185 -3.135,6.736C-3.139,4.289 -2.186,1.985 -0.456,0.246C-0.214,0 0.183,0 0.428,0.243C0.674,0.49 0.675,0.886 0.43,1.13C-1.065,2.631 -1.888,4.622 -1.885,6.736C-1.885,8.85 -1.056,10.837 0.44,12.329C0.686,12.575 0.687,12.971 0.442,13.214C0.321,13.336 0.162,13.397 0,13.397" style="fill:white;fill-opacity:0.2;fill-rule:nonzero;"/>
                </g>
                <g transform="matrix(2.18548,0,0,2.18548,179.728,54.7281)">
                    <path d="M0,17.175C-0.159,17.175 -0.319,17.115 -0.443,16.995C-2.68,14.76 -3.914,11.787 -3.917,8.624C-3.919,5.456 -2.69,2.482 -0.457,0.243C-0.213,0 0.184,0 0.427,0.243C0.671,0.489 0.671,0.884 0.427,1.13C-1.569,3.128 -2.669,5.789 -2.665,8.621C-2.662,11.449 -1.56,14.111 0.441,16.107C0.685,16.351 0.687,16.749 0.441,16.994C0.319,17.115 0.16,17.175 0,17.175" style="fill:white;fill-opacity:0.2;fill-rule:nonzero;"/>
                </g>
            </g>
        </g>
    </g>
</svg>
