<svg width="100%" height="100%" viewBox="0 0 256 256" version="1.1" xmlns="http://www.w3.org/2000/svg" xmlns:xlink="http://www.w3.org/1999/xlink" xml:space="preserve" xmlns:serif="http://www.serif.com/" style="fill-rule:evenodd;clip-rule:evenodd;stroke-linejoin:round;stroke-miterlimit:1.41421;">
    <g id="Artboard1" transform="matrix(0.868036,0,0,5.94542,-145.537,-309.894)">
        <rect x="167.663" y="52.123" width="294.919" height="43.058" style="fill:none;"/>
        <g transform="matrix(0.288164,0,0,0.0420722,167.662,49.1617)">
            <path d="M155.954,835.438C149.951,835.438 143.91,833.172 139.229,828.642C54.771,744.26 8.182,632.015 8.069,512.597C7.993,392.99 54.394,280.708 138.7,196.175C147.912,187 162.901,187 172.075,196.175C181.287,205.462 181.287,220.375 172.075,229.663C96.717,305.097 55.187,405.562 55.338,512.484C55.451,619.254 97.057,719.757 172.604,795.116C181.816,804.328 181.892,819.354 172.604,828.604C167.998,833.172 161.995,835.438 155.954,835.438ZM868.537,834.645C862.534,834.645 856.531,832.304 851.962,827.811C842.675,818.524 842.675,803.573 851.811,794.474C927.283,718.7 968.813,618.273 968.738,511.464C968.549,404.694 926.868,304.191 851.207,228.908C842.033,219.696 842.033,204.67 851.207,195.495C860.382,186.283 875.37,186.245 884.62,195.42C969.229,279.764 1015.74,391.933 1015.93,511.464C1016.04,630.845 969.682,743.241 885.3,827.811C880.694,832.304 874.691,834.645 868.537,834.645ZM227.409,763.911C221.406,763.911 215.365,761.608 210.721,757.04C145.217,691.762 109.085,604.888 109.048,512.427C108.897,420.041 144.877,333.054 210.192,267.399C219.329,258.111 234.318,258.111 243.568,267.286C252.855,276.611 252.893,291.562 243.643,300.774C187.2,357.444 156.128,432.614 156.241,512.427C156.241,592.241 187.54,667.259 244.021,723.589C253.308,732.877 253.346,747.828 244.096,757.002C239.528,761.608 233.525,763.911 227.409,763.911ZM797.082,763.337C791.079,763.337 785.001,761.072 780.394,756.353C771.145,747.254 771.145,732.228 780.319,723.091C836.687,666.534 867.683,591.402 867.57,511.664C867.532,431.851 836.347,356.87 779.79,300.351C770.578,291.177 770.578,276.226 779.79,266.976C789.003,257.802 804.067,257.802 813.203,266.976C878.632,332.367 914.65,419.279 914.877,511.664C914.877,604.013 878.972,690.999 813.807,756.428C809.315,760.997 803.123,763.337 797.082,763.337Z"/>
        </g>
        <g transform="matrix(8.34052,0,0,1.21772,190.073,56.4221)">
            <path d="M15,3.098C10.153,3.098 6.225,7.026 6.225,11.874C6.225,13.841 7.112,15.582 8.034,17.112C8.33,17.605 13.291,24.775 14.651,26.738L14.67,26.738C14.749,26.837 14.864,26.905 15.001,26.905C15.138,26.905 15.253,26.837 15.333,26.738L15.35,26.738C16.671,24.817 21.414,17.924 21.637,17.567C22.768,15.751 23.78,14.009 23.78,11.875C23.777,7.026 19.848,3.098 15,3.098ZM14.904,15.195C13.194,15.195 11.809,13.811 11.809,12.102C11.809,10.394 13.193,9.007 14.904,9.007C16.611,9.007 17.999,10.393 17.999,12.102C17.999,13.811 16.612,15.195 14.904,15.195Z" style="fill-rule:nonzero;"/>
        </g>
    </g>
</svg>
